<svg xmlns="http://www.w3.org/2000/svg" xmlns:xlink="http://www.w3.org/1999/xlink" width="60" height="60" viewBox="0 0 1000 1000">
  <defs>
    <linearGradient id="linear-gradient" x1="0.009" y1="0.485" x2="1.006" y2="0.485" gradientUnits="objectBoundingBox">
      <stop offset="0" stop-color="#a5742a"/>
      <stop offset="0.055" stop-color="#c29c51"/>
      <stop offset="0.143" stop-color="#edd68c"/>
      <stop offset="0.185" stop-color="#ffeea3"/>
      <stop offset="0.408" stop-color="#a9834c"/>
      <stop offset="0.511" stop-color="#c09544"/>
      <stop offset="0.618" stop-color="#d4a63e"/>
      <stop offset="0.661" stop-color="#dcb351"/>
      <stop offset="0.802" stop-color="#f5dd8b"/>
      <stop offset="0.869" stop-color="#ffeea3"/>
      <stop offset="0.888" stop-color="#ecd489"/>
      <stop offset="0.923" stop-color="#cdaa60"/>
      <stop offset="0.954" stop-color="#b78c42"/>
      <stop offset="0.981" stop-color="#a97a30"/>
      <stop offset="1" stop-color="#a5742a"/>
    </linearGradient>
    <linearGradient id="linear-gradient-2" x1="0" y1="0.5" x2="1" y2="0.5" xlink:href="#linear-gradient"/>
    <clipPath id="clip-BLACK_GOLDEN_transparent">
      <rect width="1000" height="1000"/>
    </clipPath>
  </defs>
  <g id="BLACK_GOLDEN_transparent" data-name="BLACK GOLDEN  transparent" clip-path="url(#clip-BLACK_GOLDEN_transparent)">
    <path id="Path_72" data-name="Path 72" d="M0,0H1000V1000H0Z" fill="none"/>
    <g id="Group_6" data-name="Group 6">
      <g id="Group_1" data-name="Group 1">
        <path id="Path_1" data-name="Path 1" d="M81.845,338.353l.025,0,.008,0Z" fill="url(#linear-gradient)"/>
        <path id="Path_2" data-name="Path 2" d="M188.828,299.611a2.529,2.529,0,0,0,3.5-.733A366.894,366.894,0,0,1,500.34,132.09c125.65,0,241.321,63.161,309.419,168.956a2.528,2.528,0,0,0,4.251-2.737,372.766,372.766,0,0,0-625.914-2.2A2.528,2.528,0,0,0,188.828,299.611Z" fill="url(#linear-gradient-2)"/>
        <path id="Path_3" data-name="Path 3" d="M875.393,540.944c.061-.051.123-.092.184-.144.348-.266.687-.533,1.025-.809.041-.031.071-.062.113-.092,2.028-1.619,4.457-2.419,6.814-3.392,8.464-2.593,17.922-1.066,25.894-5.544,15.3-6.763,22.451-24.07,25.279-39.369-3.043-1.424-6.824,1.978-10.062,2.357-14.94,3.525-28.159,12.594-35.834,26.069,6.363-12.994,4.293-27.36,1.414-40.865-3.627-3.105-9.038,18.526-11.087,21.611-2.326,6.4-1.8,13.474-2.152,20.206a.1.1,0,0,1,.01-.051c-.082,1.927.328,3.833.308,5.759a.424.424,0,0,1-.011-.051c.195,4.734-.758,9.3-4.724,12.306-4,4.663-8.494,8.936-12.1,13.936a2.344,2.344,0,0,1-.215.369c-.011,0-.011.011-.021.021a.149.149,0,0,0-.031.041,40.435,40.435,0,0,0-2.807,4.242c2.2-16.846,3.658-33.795,4.928-50.733.708-12.645.718-25.627,6.333-37.3.031-.061.062-.143.1-.215.43-.83.83-1.67,1.229-2.51-.031.082-.071.163-.1.235,3.217-7.009,9.15-12.8,17.266-12.716,13.782-2.019,27.718-10.35,29.634-25.239-.092-3.525,8.382-20.658-.113-14.827-25.094,8.8-30.771,27.5-45.814,46.552a15.1,15.1,0,0,1,1.722-7.736c.912-1.63,1.27-3.546,2.49-5.011,7.009-9.673,5.513-22.472,1.608-33.108-.973-1.486-1.137-8.413-3.238-4.242a.385.385,0,0,1,.082-.093c-19.5,25.69,2.48,36.777-7.09,57.916a38.037,38.037,0,0,0-3.157,8.034c-.164-20.986-1.26-42-3.012-62.906-1.127-7.306.891-15.34,4.693-21.611,3.105-2.951,7.788-3.013,11.764-3.566h.02c5.677,1.865,11.138,6.21,17.235,6.21a12.3,12.3,0,0,0,4.489-.841c.071-.02.153-.051.225-.071,9.817-2.952,14.182-12.983,20.35-20.228a.282.282,0,0,1,.052-.061,8.079,8.079,0,0,1,2.141-1.958,1.513,1.513,0,0,0,.338-.83c0-1.106-2.469-1.055-3.443-1.383h-.02c-.379-.061-.748-.041-1.137-.1.01,0,.03.01.041.01A68.555,68.555,0,0,0,883.6,382.71a1.285,1.285,0,0,0-.143.1c-3.084,2.551-6.363,3.484-10.288,4.088l.092-.031c-1.65.4-3.279.923-4.939,1.312,2.931-2.418,6.7-3.31,9.745-5.544,13.044-7.162,11.589-21.426,11.333-34.225.01.175.021.339.021.513.235-10.995-11.313,6.886-14.408,9.212-13.689,14.264-9.2,26.58-16.569,42.228-1.793-15.279-7.593-31.172-.789-45.835,7.737-11.641,5.195-25.238,5.462-38.3-.369-1.209.174-4.827-1.691-4.13-4.468,12.5-12.993,24.675-12.993,38.314a31.1,31.1,0,0,0,.235,3.873c-1.977-8.136-7.121-15.042-12.982-20.832-4.12-5.533-10.534-8.679-14.756-13.915-.266-.861-1.394-1.507-1.885-.451h-.011a3.779,3.779,0,0,0,.267,1.885c-.031-.082-.052-.154-.082-.236,2.633,25.177,7.808,30.413,28.261,43.827.041.03.082.072.123.1a15.016,15.016,0,0,1,3.094,5.083c2.388,16.426,5.2,32.821,6.753,49.349.01.092.021.2.031.3-.01-.03-.01-.071-.021-.112.093,1.219.185,2.428.267,3.637-14.315-31.94-24.326-30.761-52.1-45.168-15.4-13.332-.174,16.1,4.642,18.967,9.458,8.146,22.175,8.628,33.825,10.78a.03.03,0,0,1-.02-.011,8.029,8.029,0,0,0,.861.072c-.052-.01-.093-.021-.134-.031a.911.911,0,0,0,.236.031.231.231,0,0,1-.082.01,4.17,4.17,0,0,0,.594.093A79.636,79.636,0,0,1,855.862,424.9c4.078,9.222,2.316,19.51,3.371,29.4a438.227,438.227,0,0,1-.922,55.753c-.666-.943-1.291-1.926-1.927-2.889-3.77-5.442-9.744-10.268-9.816-17.39a11.046,11.046,0,0,1,.041-3.186v-.011a40.519,40.519,0,0,0,.205-13.884c-.615-9.263-4.365-17.9-11.712-23.773-6.19-5.759-11.989-12.122-18.937-16.887-1.947-1.629-1.445.328-1.352,1.691.952,25.935,14.632,48.222,32.78,65.97-9.182-2.234-13.137-11.354-20.556-16.314-11.64-8.505-27.974-10-41.767-7.808-1.28.769.431,1.845,1.179,2.255,10.606,6.814,17.225,19.848,30.464,22.3,8.167,2.49,16.344-3.873,24.378-.851,2.551,1.609,5.1,3.5,8.167,3.874,3.432,1.752,5.246,6.486,7.008,9.9,0,.011.011.021.011.031.071.236.153.451.235.676l.031.093c1.4,24.941-4.724,50.906-8.607,75.766-1.906,8.812-3.556,17.717-6.21,26.324a2.156,2.156,0,0,1,.062-.256c-.042.154-.1.307-.154.461-.666-1.158-1.455-2.254-2.142-3.4-.031-.051-.061-.1-.092-.164v.021c-.062-.113-.133-.236-.195-.349-.123-.215-.256-.43-.389-.656a98.927,98.927,0,0,1-5.462-15.155.194.194,0,0,1,.021.051,14,14,0,0,1-.3-1.6c-.789-10.472,5.83-20.412,3.709-30.967-.01,0-.01.011-.01.011v-.041c-2.49-11.221-8.331-21.683-18.353-27.739.082.052.164.113.246.164-2.275-.84-7.449-11.978-9.365-7.029,1.9,5.6,2.858,11.61,5.963,16.784,1.619,9.591,3.064,19.265,5.687,28.733-1.783-3.7-6.383-5.718-7.48-9.55-.482-11.252-5.472-21.273-13.208-29.266-5.472-4.5-11.21-9.15-18.26-10.738-1.753-.175-4.888-3.28-5.851-.82,6.435,7.162,9.6,16.508,14.663,24.7-.061-.092-.123-.174-.184-.266C799.944,563.9,819.9,569,826.012,586.512c.841,1.927,1.712,3.822,2.449,5.79-13.228-7.02-9.109-12.338-21.18-17.113-13.085-7.4-37.5-2.623-46.511,9.54-2.367,3.279,1.988,2.255,3.853,1.742,4.1-.379,8.218.1,12.327.164.051,0,.092.01.143.01h-.082a25.551,25.551,0,0,1,7.655,1.824c6.65,2.244,13.147,6.046,20.381,3.73a53.613,53.613,0,0,1,5.831-.6,34.217,34.217,0,0,0,5.769-.759c4.14-1,7.644,2.122,10.954,4.089.01.01.03.02.041.031.512.42.973.922,1.506,1.322a8,8,0,0,1,1.168,1.116c0,.011.01.021.021.031s.01.01.01.021c.2.379.564.686.656,1.086V598.5c8.853,23.906,11.056,22.974,3.31,48.007-4.13,14.827-8.751,25.495-17.758,41.019-1.876,3.248-3.853,6.691-6.866,11.312-5,7.675-9.858,14.367-9.858,14.367.021.092.052.194.082.287A367.8,367.8,0,0,1,192.33,701.114a2.615,2.615,0,0,0-1.158-.953c-.287-.43-.574-.871-.871-1.322-3.013-4.621-4.98-8.064-6.866-11.312-9.007-15.524-13.618-26.192-17.758-41.019-7.747-25.023-5.543-24.1,3.31-47.976a5.251,5.251,0,0,1,.635-1.045c.01-.021.031-.041.041-.062a6.4,6.4,0,0,1,1.127-1.1c.564-.41,1.035-.933,1.568-1.373l.031-.031c3.32-1.967,6.824-5.093,10.954-4.089,3.8.922,7.736.656,11.61,1.363a15.014,15.014,0,0,0,4.662.717c5.421,0,10.524-2.7,15.719-4.447a25.41,25.41,0,0,1,7.644-1.824H222.9c.052,0,.1-.01.154-.01,4.109-.061,8.228-.543,12.327-.164,1.855.513,6.22,1.537,3.853-1.742-9.017-12.163-33.436-16.938-46.511-9.54-12.081,4.775-7.952,10.093-21.181,17.113.769-2.06,1.691-4.038,2.572-6.056-.041.092-.092.184-.133.266,6.107-17.461,25.946-22.584,35.1-37.514-.031.041-.061.092-.092.133,5.062-8.2,8.218-17.543,14.653-24.7-.953-2.46-4.088.645-5.841.82-7.05,1.588-12.788,6.24-18.26,10.738C191.8,543.977,186.806,554,186.325,565.25c-1.107,3.832-5.7,5.851-7.48,9.55,2.623-9.468,4.068-19.142,5.687-28.733,3.094-5.174,4.068-11.179,5.963-16.784-1.926-4.949-7.091,6.189-9.376,7.029a.558.558,0,0,0,.123-.082c-9.95,6.056-15.749,16.477-18.219,27.657,0,.02-.01.02-.01.03-2.121,10.555,4.488,20.495,3.7,30.967a13.5,13.5,0,0,1-.277,1.547v.021a.037.037,0,0,0-.01.03,97.427,97.427,0,0,1-5.482,15.166c-.113.205-.236.4-.348.594-.072.113-.134.236-.205.349-.031.051-.052.1-.082.143s-.051.082-.072.123c-.676,1.107-1.435,2.162-2.08,3.279-.051-.154-.1-.307-.144-.461.021.082.041.174.062.256-2.664-8.628-4.324-17.563-6.23-26.4-3.884-24.839-9.991-50.774-8.6-75.694a.344.344,0,0,1,.041-.093c.081-.225.163-.45.235-.676,1.752-3.412,3.576-8.167,7.019-9.929,3.064-.369,5.616-2.265,8.167-3.874,8.034-3.022,16.211,3.341,24.378.851,13.239-2.449,19.858-15.483,30.464-22.3.748-.41,2.459-1.5,1.168-2.265v.01c-13.782-2.193-30.116-.7-41.756,7.808-7.419,4.96-11.385,14.08-20.566,16.314,18.158-17.748,31.827-40.035,32.79-65.97.093-1.363.584-3.32-1.362-1.691-6.948,4.765-12.748,11.128-18.927,16.887-7.347,5.871-11.1,14.51-11.722,23.773a40.519,40.519,0,0,0,.215,13.884,11.121,11.121,0,0,1,.031,3.2c-.062,7.122-6.036,11.948-9.807,17.39-.645.963-1.26,1.946-1.926,2.889a436.4,436.4,0,0,1-.932-55.753c1.055-9.889-.708-20.177,3.371-29.4,0,.02-.01.041-.01.061a78.938,78.938,0,0,1,10.328-17.3,3.825,3.825,0,0,0,.585-.093c-.052,0-.1-.01-.154-.01a.823.823,0,0,0,.318-.031c-.052.01-.093.021-.134.031a7.867,7.867,0,0,0,.851-.072c-.01.011-.01.011-.021.011,11.651-2.152,24.378-2.634,33.826-10.78,4.816-2.869,20.053-32.3,4.652-18.967-27.77,14.407-37.781,13.228-52.1,45.168.082-1.209.174-2.418.256-3.637.01-.093.01-.185.021-.267v.082c1.557-16.528,4.355-32.923,6.753-49.349a15.015,15.015,0,0,1,3.094-5.083,1.15,1.15,0,0,0,.123-.113c20.443-13.4,25.628-18.649,28.251-43.816a3.076,3.076,0,0,0,.184-1.649.8.8,0,0,0-.727-.543,1.365,1.365,0,0,0-1.158.994c-4.232,5.236-10.636,8.382-14.756,13.915-5.871,5.79-11.015,12.7-12.983,20.832,1.865-15.237-7.869-28.517-12.757-42.187a1.261,1.261,0,0,0-.43-.092c-1.353,0-.923,3.115-1.271,4.222.277,13.065-2.275,26.662,5.462,38.3,6.8,14.663,1,30.556-.789,45.835-7.358-15.648-2.87-27.964-16.57-42.228-3.084-2.326-14.632-20.207-14.407-9.212.01-.174.02-.338.02-.513-.245,12.809-1.7,27.073,11.344,34.225,3.033,2.234,6.814,3.126,9.734,5.544-1.66-.389-3.279-.912-4.928-1.312l.092.031c-3.925-.6-7.2-1.537-10.288-4.088a1.507,1.507,0,0,0-.154-.113,68.633,68.633,0,0,0-33.395-13.485c.011,0,.021-.01.031-.01-.379.061-.768.041-1.137.1h-.021c-1.158.39-4.5.236-3.1,2.213a7.956,7.956,0,0,1,2.152,1.958c.031.041.072.082.1.123l-.062-.062c6.179,7.245,10.534,17.276,20.361,20.228.082.03.154.051.225.071,7.983,3.064,14.674-3.063,21.714-5.369h.02c3.976.553,8.669.615,11.774,3.566,3.791,6.271,5.82,14.3,4.693,21.611-1.762,20.9-2.849,41.92-3.013,62.906a37.983,37.983,0,0,0-3.156-8.034c-9.57-21.139,12.409-32.226-7.09-57.916a.873.873,0,0,1,.082.093c-2.1-4.171-2.265,2.756-3.239,4.242-3.914,10.657-5.42,23.476,1.65,33.159,1.179,1.455,1.537,3.351,2.449,4.96a14.99,14.99,0,0,1,1.712,7.736c-15.033-19.049-20.71-37.75-45.8-46.552-8.5-5.831-.021,11.3-.113,14.827,1.916,14.889,15.852,23.22,29.634,25.239,8.023-.082,13.905,5.574,17.153,12.481.41.871.841,1.731,1.271,2.592-.01-.031-.02-.051-.031-.082.041.082.072.164.113.236,5.6,11.661,5.615,24.644,6.322,37.278,1.271,16.938,2.716,33.887,4.929,50.733a39.3,39.3,0,0,0-2.828-4.263.022.022,0,0,0-.02-.02l-.011-.021a2.354,2.354,0,0,1-.225-.369c-3.6-5-8.095-9.273-12.1-13.936-3.955-3-4.908-7.572-4.713-12.306a.424.424,0,0,1-.011.051c-.03-1.926.38-3.832.308-5.759-.349-6.722.174-13.772-2.152-20.155-2.049-3.085-7.45-24.716-11.077-21.611-2.879,13.505-4.949,27.871,1.414,40.865-7.675-13.475-20.893-22.544-35.844-26.069-3.238-.379-7.019-3.781-10.052-2.357,2.818,15.3,9.97,32.606,25.279,39.369,7.962,4.478,17.42,2.951,25.874,5.534,2.357.973,4.8,1.772,6.824,3.4.01,0,.01,0,.021.01.379.307.758.6,1.137.9a.756.756,0,0,1-.092-.082,40.655,40.655,0,0,1,6.958,7.019c-.072-.113-.154-.2-.226-.318,4.447,6.025,9.325,12.03,11.63,19.254-.061-.143-.112-.3-.174-.44a100.649,100.649,0,0,0,2.859,10.021c.051.256.1.523.154.779.215,1.158.44,2.316.645,3.474a.135.135,0,0,0,.021.092c.01.082.031.164.041.246a762.21,762.21,0,0,0,19.992,81.894c-1.978-2.89-4.98-4.745-7.327-7.286-1.014-1.209-2.48-2.07-3.2-3.494-.01-.01-.01-.021-.02-.031-.041-.082-.082-.154-.123-.225a1.047,1.047,0,0,1,.082.122,37.362,37.362,0,0,1-3.976-10.216c.02.1.041.2.061.3-4.191-11.261-2.172-23.793-7.818-34.634C140.6,600.407,134.516,595.4,130,589.32c-2.131-1.845-3.351-6.087-6.209-6.5-2.449,9.888,1.291,21.642,4.949,31.335,4.006,9.643,12.071,17,19.151,23.886-.02-.061-.041-.123-.061-.174.154.389.41.748.543,1.148,0,.01.01.02.021.03,1.383,2.644,1.465,5.7,2.735,8.393l.031.215a.511.511,0,0,0,.01.123c-10.144-8.628-17.85-20.033-25.6-30.741-.892-1.865-1.927-3.669-2.87-5.5-7.142-15.9-12.122-34.829-28.3-44.154-1.291-.625-4.642-3.31-4.99-.625,2.9,15.053-.707,35.178,16.856,41.982-2.541.3-19.192-6.917-16.1-1.25-.051-.082-.092-.164-.143-.257,4.836,10.688,14.2,18.332,20.852,27.872,6.169,6.681,15.115,10.534,23.937,12.174,3.894.922,8.259.153,11.569,2.725a38.816,38.816,0,0,1,7.234,5.165c-.061-.072-.133-.144-.194-.215a106.529,106.529,0,0,1,16.18,18.311c4,5.872,7.142,12.676,10.933,19.121,6.323,10.739,13.075,20.5,15.545,23.947.072.1.277.113.563.041a372.745,372.745,0,0,0,617.37-14.684,2.665,2.665,0,0,0,.369-.994c1.66-2.633,3.382-5.441,5.072-8.31,3.792-6.445,6.948-13.249,10.934-19.121a106.375,106.375,0,0,1,16.19-18.311c-.061.071-.133.143-.2.215A38.785,38.785,0,0,1,853.608,650c3.32-2.572,7.675-1.8,11.579-2.725,8.812-1.64,17.758-5.493,23.926-12.164l.011-.01c6.65-9.54,16.005-17.184,20.842-27.872,2.449-5.184-13.731,1.8-16.242,1.507,17.564-6.8,13.967-26.929,16.867-41.982-.348-2.685-3.709,0-5,.625-16.169,9.325-21.149,28.251-28.291,44.154-.943,1.834-1.978,3.638-2.87,5.5-7.746,10.708-15.452,22.113-25.6,30.741,0-.041.011-.082.011-.123a1.576,1.576,0,0,0,.02-.215c1.281-2.7,1.363-5.749,2.736-8.393.01-.01.021-.02.021-.03.01-.031.02-.052.03-.082.144-.369.38-.707.523-1.066-.021.051-.041.113-.072.174,7.091-6.886,15.156-14.243,19.162-23.886,3.658-9.693,7.388-21.447,4.949-31.335-2.859.41-4.078,4.652-6.22,6.5-4.508,6.076-10.6,11.087-13.915,17.963-5.646,10.841-3.627,23.373-7.818,34.634a2.844,2.844,0,0,1,.051-.3,37.062,37.062,0,0,1-3.894,10.094c-.041.071-.082.143-.123.225,0,.01-.01.021-.01.031a.446.446,0,0,0-.041.071c-.738,1.384-2.162,2.234-3.166,3.423-2.337,2.541-5.339,4.4-7.317,7.286a767.473,767.473,0,0,0,19.992-81.894c.01-.082.031-.164.041-.246.01-.031.01-.051.02-.092.2-1.1.41-2.193.615-3.29.062-.317.123-.645.185-.963a100.323,100.323,0,0,0,2.848-10.021c-.061.143-.112.3-.164.44,2.3-7.224,7.184-13.229,11.631-19.254-.072.113-.154.205-.226.318A40.81,40.81,0,0,1,875.393,540.944Zm55.6-42.177a101.868,101.868,0,0,1-6.845,15.207c-8.188,14.212-24.665,19.5-40.261,19.172,8.147-6.374,15.8-13.465,24.357-19.3,7.686-5.134,16.324-9.489,22.349-16.672.451-.513.912-1,1.383-1.506C931.649,496.7,931.341,497.743,930.993,498.767Zm-39.851,22.195a66.243,66.243,0,0,1,10.473-12.634c8.064-8.034,19.254-10.719,29.634-14.448-7.368,8.382-17.42,13.464-26.55,19.612a.586.586,0,0,0-.082.062c-.01,0-.021.01-.031.02-6.834,5.154-13.341,10.739-19.951,16.17A65.414,65.414,0,0,0,891.142,520.962Zm-2.121-35.608a21.322,21.322,0,0,1,.625,4.007c.912,8.023,1.455,16.077-1.578,23.793-1.066,4.386-3.433,8.218-5.4,12.235C887.228,512.478,887.269,498.778,889.021,485.354Zm-9.1,23.5c.184-7.388,4.836-13.587,7.039-20.453-.6,4.888-1.137,9.756-1.629,14.643l-.031.185a.131.131,0,0,0-.01.061c-.512,2.89-.717,5.8-1.24,8.679a.135.135,0,0,0-.01.062c-.01.041-.01.072-.02.113-.226,1.127-.533,2.233-.7,3.381-.01.072-.031.144-.041.215-1.343,5.032-1.722,11.026-4.632,15.3C879.727,523.688,878.723,516.208,879.922,508.85Zm36.94-89.8c-.3,1.168-.553,2.336-.871,3.5-2.141,11.1-7.378,22.123-18.844,25.9-1.722.543-3.4,1.127-5.072,1.8a1.414,1.414,0,0,0-.185.072,43.959,43.959,0,0,1-8.863,1.7C894.626,441.415,908.224,432.418,916.862,419.046ZM881.49,450.125c9.017-13.987,18.854-26.724,35.147-32.36-9.694,13.936-24.275,23.4-36.644,34.758C880.516,451.734,881.008,450.924,881.49,450.125Zm-6.815-34.471c5.247,11.794,3.32,24.521-3.094,35.362-.01.011,0,.011,0,.011-.041.1-.082.194-.113.287.082-1.21.154-2.408.348-3.607v-.021C876.294,437.152,874.891,426.649,874.675,415.654Zm-6.425,11.354a.031.031,0,0,0-.01.02l.031-.184c0-.031.01-.051.01-.082v-.021c0-.01.01-.02.01-.03V426.7c.841-3.934,2.921-7.459,5.032-10.82-.922,5.144.123,10.277.266,15.442.164,6.312-2.961,11.886-3.75,18.014-.1-.758-.226-1.517-.379-2.275C867.83,440.462,866.867,433.771,868.25,427.008Zm14.705-42.29a42.943,42.943,0,0,0,5.2-3.217c.01-.01.021-.01.031-.021a83.329,83.329,0,0,1,11.794-5.41,116.482,116.482,0,0,1,12.419-3.781c-9.5,5.7-18.547,12.225-30.044,12.788C882.555,384.954,882.74,384.821,882.955,384.718Zm34.01-11.947c-2.706,3.258-5.226,6.7-7.809,10.072-6.906,11.2-19.028,11.887-29.163,4.642C896.358,386.194,903.2,379.021,916.965,372.771Zm-31.151-20.433c-.062,5.134.43,10.339-.031,15.453-2.019,8.443-10.226,12.706-17.174,16.589C875.874,374.564,883.006,364.389,885.814,352.338Zm-19.346,27.933c2.725-10.452,9.9-19.018,17.46-26.437-3.166,11.661-11.189,21-18.178,30.6A35.8,35.8,0,0,1,866.468,380.271Zm-41.337-54.585c9.591,8.31,17.307,18.813,21.416,30.9-6.045-12.43-18.454-20.187-23.947-32.75A20.254,20.254,0,0,1,825.131,325.686Zm22.81,37.012c-4.519-4.745-10.78-7.337-15.34-12.061l-.061-.061c-6.517-6.62-8.249-15.863-10.175-24.593,1.762,7.214,7.623,12.02,12.265,17.481,5.554,5.974,9.458,13.342,13.977,20.105C848.382,363.282,848.187,362.964,847.941,362.7Zm3.494-3.535a69.455,69.455,0,0,1-.072-12.379c.728-5.984,3.474-11.5,5.964-16.917-.123.6-.205,1.2-.3,1.8-.01.041-.02.092-.031.143-1.168,6.22-3.033,12.266-4.252,18.455A63.576,63.576,0,0,0,851.435,359.163Zm2.408-6.251c.011-.072.021-.143.031-.2.564-4.591,2.439-8.853,3.238-13.372-.01.071-.02.153-.031.225,1.394-4.2,1.64-8.587,2.572-12.88.256,4.355.779,8.72.5,13.075-1.055,6.005-3.924,11.528-6.793,16.836C853.474,355.361,853.628,354.131,853.843,352.912Zm-46.972,29.276c.338.215.7.4,1.035.594,10.175,5.933,22.871,7.613,31.161,16.682-10.749-7.357-25.023-9.222-34.245-18.65C805.529,381.235,806.185,381.747,806.871,382.188Zm32.78,20.975c-7.47-1.025-15.073-1.855-21.928-5.2-7.716-3.228-11.928-10.647-15.32-17.881,9.438,12.942,27.257,14.294,39.625,23.558A9.879,9.879,0,0,0,839.651,403.163Zm4.867,4.355a.979.979,0,0,1-.143-.041,1.3,1.3,0,0,0,.174.041Zm.216,0h-.041c.03-.01.061-.01.092-.02C844.764,407.508,844.744,407.508,844.734,407.518ZM824.383,464.03a69.86,69.86,0,0,1-6.63-26.509,137.378,137.378,0,0,1,9.694,16.959c5.287,10.185,8.321,21.293,13.106,31.694.041.072.072.154.113.225.45.851.942,1.691,1.424,2.531C833.452,482.9,828.769,473.345,824.383,464.03Zm20.177,14.848c-.011-.092-.021-.195-.031-.3.112,3.361-.513,6.752-.461,10.134-.246-.5-.482-.994-.738-1.486-.1-.184-.2-.379-.287-.574-4.724-11.23-8.71-22.779-14.407-33.589a.074.074,0,0,1-.021-.041c-.02-.041-.051-.082-.072-.123-.03-.062-.061-.113-.092-.174-2.5-6.026-6.373-11.241-10.154-16.5,1.106,1.045,2.172,2.172,3.34,3.156a1.4,1.4,0,0,0,.143.113c.041.031.072.061.113.092C834.323,449.234,845.123,462.309,844.56,478.878Zm-52.8-1.711a99.587,99.587,0,0,1,10.933.451l-.307-.062a46.266,46.266,0,0,1,34.286,17.164c-2.008-1.117-4.191-1.875-6.2-2.972a2.361,2.361,0,0,1-.215-.133,131.923,131.923,0,0,0-17.687-7.45,69.307,69.307,0,0,0-8.515-2.776,2.354,2.354,0,0,0,.246.081c-4.58-1.393-9.232-2.571-13.71-4.262C790.978,477.2,791.367,477.177,791.757,477.167Zm44.216,19.459c-11.948,1.363-21.007,4.611-31.274-4.775a.433.433,0,0,0,.1.082c-3.689-3.136-6.671-7-10.349-10.124-.246-.216-.492-.42-.738-.625-.143-.134-.3-.257-.441-.38l-.01-.01c-.43-.359-.861-.717-1.291-1.086-.236-.2-.482-.4-.728-.605a18.349,18.349,0,0,0,3.72,1.353c6.261,2.326,12.706,4.078,19.039,6.23a1.78,1.78,0,0,1-.256-.072c7.521,2.931,14.592,6.866,22.144,9.663-.072-.02-.144-.041-.226-.061.123.041.246.082.369.112.031.011.072.021.1.031.287.093.554.215.83.318C836.639,496.656,836.3,496.636,835.973,496.626ZM808.7,563.057c-14.7-8.044-18.475-22.953-27.175-35.793,13.393,3.955,24.4,15.709,28.569,28.968.153.472.287.923.44,1.394.871,2.459.789,5.1,1.353,7.624C810.826,564.522,809.73,563.836,808.7,563.057Zm-1.916,26.693c-1.281.133-2.562.359-3.832.574-7.378,1.578-13.752-3.453-20.658-5.1-5.687-.984-11.579-.809-17.338-.7A27.992,27.992,0,0,1,768.609,583c.205-.051.4-.112.6-.163h-.03c5.3-1.794,11.107-.042,16.641-.246a65,65,0,0,1,29.091,6.578C812.2,589.525,809.474,589.269,806.779,589.75Zm-26.5-9.058H779.8a.2.2,0,0,0,.082.01c-.123,0-.267,0-.39.01h-.113c-1.26.011-2.5-.143-3.76-.082h-.01c-4.089-.553-7.87,1.22-11.436,3.013.512-.492,1.045-.963,1.6-1.424-.011,0-.021.01-.031.01.328-.267.645-.533.973-.81l.021-.02c4.867-3.914,11.077-5.124,17.122-5.892,1.722-.246,3.433-.471,5.155-.789a.939.939,0,0,0-.175.02.683.683,0,0,1,.205-.03c.031-.011.072-.011.1-.021,10.226-1.557,21.99,3.6,27.267,12.481C805.221,581.327,792.72,580.466,780.28,580.692Zm47.085,3.5c.041.093.072.185.113.277-3.73-6.7-5.431-14.059-6.9-21.519-2.04-8.884-1.753-17.891-5.647-26.345,9.766,15.473,12.01,33.549,14.07,51.266C828.41,586.676,827.97,585.4,827.365,584.2Zm3.3-.748c-1.271-14.407-3.505-29.152-11.1-41.756-.758-1.209-1.373-2.521-2.2-3.689.748.553,1.517,1.1,2.244,1.67a30.9,30.9,0,0,1,11.487,14.776c.02.052.051.113.082.174a26.147,26.147,0,0,1,3.289,13.168c0,6.148-1.67,12.389-3.381,18.445A12.76,12.76,0,0,1,830.665,583.448Zm-612.954,1.773c-6.916,1.65-13.29,6.681-20.658,5.1a.037.037,0,0,0-.03-.01c-1.261-.205-2.531-.431-3.8-.564-2.7-.481-5.431-.225-8.146-.584a65.034,65.034,0,0,1,29.1-6.578c5.523.2,11.333-1.548,16.641.246h-.031c.205.051.39.112.6.163a27.427,27.427,0,0,1,3.658,1.527C229.29,584.412,223.4,584.237,217.711,585.221Zm-6.855-10.534a.179.179,0,0,0,.072.01.038.038,0,0,1,.031.011.721.721,0,0,1,.2.03,1.024,1.024,0,0,0-.174-.02c1.712.318,3.433.543,5.155.789a56,56,0,0,1,9.007,1.762,23.986,23.986,0,0,1,8.115,4.13c0,.01.01.01.021.02.317.267.635.533.942.8.554.461,1.076.932,1.6,1.424-3.566-1.793-7.347-3.566-11.436-3.013h-.01c-1.23-.061-2.439.082-3.668.082H220.5c-.122-.01-.256-.01-.379-.01a.2.2,0,0,0,.082-.01h-.481c-1.117-.021-2.224-.031-3.341-.031-11.323,0-22.6,1.189-32.8,6.507C188.866,578.284,200.63,573.13,210.856,574.687Zm-21.447-16.9a2.3,2.3,0,0,0,.082-.256c.144-.451.3-.9.43-1.363,0,.02-.01.041-.01.061,4.171-13.259,15.166-25.013,28.559-28.968C209.77,540.1,206,555.013,191.3,563.057c-1.035.779-2.132,1.465-3.187,2.193C188.671,562.78,188.6,560.208,189.409,557.79Zm-9.991,5.164c-1.465,7.46-3.166,14.818-6.906,21.519l.123-.277c-.615,1.2-1.056,2.48-1.65,3.679,2.06-17.717,4.3-35.793,14.069-51.266C181.171,545.063,181.458,554.07,179.418,562.954Zm-10.6-8.331h.01c.031-.061.051-.122.082-.174h-.01a31.017,31.017,0,0,1,11.487-14.776c.737-.574,1.5-1.117,2.244-1.67-.82,1.168-1.435,2.48-2.193,3.689-7.6,12.593-9.827,27.349-11.1,41.756v-.307a13.715,13.715,0,0,1-.42,3.1C165.944,575.773,163.115,564.737,168.813,554.623Zm28.8-77.067-.307.062a99.474,99.474,0,0,1,10.933-.451c.389.01.769.03,1.158.041-4.468,1.691-9.13,2.869-13.7,4.262.072-.02.154-.051.246-.081a68.825,68.825,0,0,0-8.516,2.776,131.14,131.14,0,0,0-17.686,7.45c-.01.01-.031.01-.041.02a1.605,1.605,0,0,1-.174.113c-2.008,1.1-4.2,1.855-6.21,2.972A46.29,46.29,0,0,1,197.617,477.556Zm-33.754,18.8a.252.252,0,0,1,.082-.02c.123-.041.257-.082.38-.123l-.216.061c7.552-2.8,14.623-6.732,22.144-9.663a2.237,2.237,0,0,1-.256.072c6.333-2.152,12.768-3.9,19.039-6.23a18.319,18.319,0,0,0,3.719-1.353c-.307.257-.614.513-.912.769l-1.116.932c-.154.123-.308.257-.451.38-.226.194-.461.389-.7.594-3.669,3.1-6.63,6.947-10.288,10.073-10.268,9.386-19.326,6.138-31.264,4.775-.338.01-.666.03-1,.051C163.3,496.574,163.577,496.452,163.863,496.359Zm11.754-32.329c-4.4,9.315-9.069,18.875-17.717,24.9.481-.83.963-1.67,1.424-2.51.041-.072.072-.144.113-.216,4.785-10.41,7.818-21.528,13.116-31.724a137.38,137.38,0,0,1,9.694-16.959A69.859,69.859,0,0,1,175.617,464.03Zm2.459-24.408c.051-.041.092-.082.143-.123s.093-.072.144-.113c1.168-.984,2.234-2.111,3.34-3.156-3.75,5.216-7.582,10.38-10.083,16.344-.02.051-.051.1-.071.154a1.5,1.5,0,0,0-.1.174v.01c-.02.041-.041.072-.061.113-.011.01-.011.031-.021.041s-.01.02-.02.041c-5.687,10.8-9.673,22.328-14.387,33.548-.092.2-.184.39-.287.574-.256.492-.5.984-.738,1.486.041-3.382-.574-6.773-.461-10.134-.01.1-.02.205-.031.3C154.877,462.319,165.657,449.254,178.076,439.622Zm14.018-56.84c.338-.2.7-.379,1.025-.594.7-.441,1.352-.953,2.059-1.374-9.222,9.428-23.5,11.293-34.245,18.65C169.212,390.395,181.919,388.715,192.094,382.782Zm5.492-2.7c-3.381,7.224-7.583,14.633-15.288,17.871-6.866,3.35-14.479,4.18-21.949,5.2a9.9,9.9,0,0,0-2.378.482C170.329,394.381,188.159,393.029,197.586,380.087Zm-41.961,27.39a.8.8,0,0,1-.154.041h-.031A1.118,1.118,0,0,0,155.625,407.477Zm-.328.041h-.031c-.02-.01-.03-.01-.051-.02C155.246,407.508,155.266,407.508,155.3,407.518Zm19.572-81.832a19.367,19.367,0,0,1,2.52-1.845c-5.492,12.563-17.891,20.32-23.936,32.75C157.562,344.5,165.278,334,174.869,325.686Zm-9.509,17.778C170,338,175.873,333.2,177.625,325.983c-1.916,8.73-3.648,17.973-10.165,24.593a1.932,1.932,0,0,0-.143.143c-4.55,4.673-10.77,7.265-15.258,11.979a10.723,10.723,0,0,0-.666.871C155.912,356.806,159.816,349.438,165.36,343.464Zm-16.724,3.32a70.3,70.3,0,0,1-.071,12.379,62.828,62.828,0,0,0-1.322-8.946c-1.23-6.189-3.084-12.245-4.263-18.465,0-.031-.01-.062-.01-.082-.092-.605-.174-1.2-.3-1.8C145.163,335.287,147.909,340.8,148.636,346.784Zm-8.791-7.029c-.287-4.355.235-8.72.491-13.075.933,4.293,1.189,8.679,2.583,12.88-.011-.072-.021-.154-.031-.225.809,4.59,2.736,8.9,3.269,13.577a1.651,1.651,0,0,1-.041-.2c.235,1.291.4,2.582.522,3.884C143.759,351.283,140.89,345.76,139.845,339.755ZM79.234,371.766a.032.032,0,0,0-.021-.01c.021,0,.041.01.062.01Zm.635-1.895a.151.151,0,0,1,.062.02c.01.01.03.021.04.031A.3.3,0,0,0,79.869,369.871Zm31.95,11.609c.01.011.021.011.031.021a42.937,42.937,0,0,0,5.195,3.217c.215.1.4.236.605.359-11.5-.563-20.545-7.091-30.055-12.788A96.747,96.747,0,0,1,111.819,381.48Zm-20.986,1.363c-2.572-3.371-5.092-6.814-7.808-10.072,13.762,6.25,20.607,13.423,36.981,14.714C109.862,394.73,97.74,394.043,90.833,382.843Zm23.374-15.052c-.451-5.114.041-10.319-.021-15.453,2.808,12.051,9.94,22.226,17.195,32.042C124.433,380.5,116.236,376.234,114.207,367.791Zm1.854-13.957c7.573,7.419,14.736,15.985,17.471,26.437a38.29,38.29,0,0,1,.718,4.161C127.251,374.83,119.238,365.495,116.061,353.834Zm-7.951,96.5a1.414,1.414,0,0,0-.185-.072c-1.67-.676-3.361-1.26-5.072-1.8-11.477-3.782-16.713-14.807-18.844-25.9-.318-1.168-.574-2.336-.871-3.5,8.638,13.372,22.226,22.369,33.825,32.985A43.849,43.849,0,0,1,108.11,450.33ZM83.363,417.765c16.293,5.636,26.12,18.373,35.147,32.36.482.8.974,1.609,1.486,2.4C107.638,441.169,93.057,431.7,83.363,417.765Zm45.066,33.272c-.01-.01-.01-.01-.01-.021-6.414-10.841-8.341-23.568-3.105-35.362-.215,10.995-1.608,21.5,2.859,32.032v-.051c0,.02.01.051.01.072l.031.153c-.01-.02-.01-.041-.02-.061.184,1.168.256,2.336.338,3.515A2.266,2.266,0,0,1,128.429,451.037Zm1.722-1.7c-.789-6.128-3.9-11.7-3.74-18.014.143-5.165,1.178-10.3.266-15.442,2.121,3.381,4.212,6.926,5.031,10.882,0-.041-.01-.072-.01-.1a.062.062,0,0,0,.01.041.7.7,0,0,0,.021.144.818.818,0,0,0,.02.164c1.374,6.763.421,13.454-1.219,20.053C130.376,447.819,130.264,448.578,130.151,449.336Zm-32,58.756a66.064,66.064,0,0,1,10.7,12.87,66.459,66.459,0,0,0,6.507,8.782c-6.609-5.431-13.116-11.016-19.94-16.17a.054.054,0,0,0-.041-.02.994.994,0,0,0-.123-.093l-.01-.01c-9.11-6.127-19.152-11.21-26.489-19.571C79.019,497.579,90.106,500.243,98.15,508.092Zm-22.3,5.882a101.872,101.872,0,0,1-6.845-15.207c-.348-1.024-.666-2.07-.983-3.1.491.532.993,1.055,1.455,1.608-.052-.061-.1-.133-.154-.2,6.025,7.245,14.694,11.62,22.42,16.775,8.557,5.84,16.211,12.931,24.368,19.3C100.517,533.474,84.029,528.186,75.852,513.974Zm36.08-.82c-3.033-7.716-2.49-15.77-1.578-23.793a20.537,20.537,0,0,1,.625-4.007c1.752,13.424,1.783,27.124,6.353,40.035C115.365,521.372,113,517.54,111.932,513.154Zm4.785,2.613-.031-.154c-.164-1.219-.491-2.387-.727-3.586a.135.135,0,0,1-.01-.062c-.523-2.9-.728-5.83-1.251-8.74a.621.621,0,0,1-.02-.133c-.5-4.909-1.035-9.786-1.64-14.7,2.193,6.866,6.856,13.065,7.03,20.453,1.209,7.358.195,14.838,1.281,22.185C118.439,526.772,118.059,520.788,116.717,515.767Zm9.858,83.994a.062.062,0,0,1-.01-.041c-.451-2.182-.605-4.437-1.076-6.629a12.8,12.8,0,0,1-.154-3.71c0-.041.01-.071.01-.1.277.83.646,1.629.984,2.449.943,2.89,2,5.759,3.135,8.587.072.184.144.369.226.563,3.289,7.809,7.972,14.93,11.435,22.646,1.578,3.341,3.136,6.692,4.765,10C135.367,625.256,129.372,612.683,126.575,599.761Zm19.315,29.573c-.656-1.895-1.609-3.689-2.408-5.543-.01-.031-.02-.052-.031-.082s-.01-.041-.02-.062c-3.361-9.13-9.55-16.9-13.352-25.832a.343.343,0,0,0-.041-.093.352.352,0,0,0-.041-.092c-1.158-2.572-2.131-5.205-3.269-7.777-.143-.369-.286-.728-.42-1.1,3.382,4.16,6.733,8.382,10.329,12.358-.02-.02-.041-.031-.061-.051.071.072.143.143.205.215,6.732,7.224,9.14,17.358,9.745,26.98.205,1.332.276,2.685.42,4.027C146.6,631.3,146.321,630.3,145.89,629.334Zm-25.955-18.711c.123.205.246.42.369.625a69.626,69.626,0,0,1-14.162-20.125v.021a.151.151,0,0,0-.02-.062,62.347,62.347,0,0,0-3.013-6.753c-.01-.02-.02-.051-.031-.071s-.02-.051-.03-.072a103.62,103.62,0,0,0-7.173-13.167C108.643,580.948,113.428,596.564,119.935,610.623Zm-27.79-38.549c-.123-1-.174-2.029-.359-3.023.113.133.236.277.349.42.031.041.061.072.092.113.348.5.686,1,1.045,1.5h-.01a1.015,1.015,0,0,0,.133.164.131.131,0,0,0,.031.041,1.094,1.094,0,0,0,.133.174l.154.216c.153.2.307.409.461.625,1.783,2.438,2.654,5.42,4.58,7.787a23.876,23.876,0,0,1,2.357,4.509c.84,2.1,2.08,4.017,2.849,6.169a2.075,2.075,0,0,0,.092.235c3.412,9.376,10.462,16.406,17.153,23.456C96.07,600.8,94.43,601.852,92.145,572.074Zm50.108,69.721a7.976,7.976,0,0,0,.922,1.2c-5.554-3.555-11.4-6.568-16.19-11.22-1.363-1.076-2.419-2.5-3.812-3.535-4.529-3.771-8.495-8.157-13.485-11.344a.857.857,0,0,0,.1.093,77.053,77.053,0,0,0-11.066-7.481C118.572,611.238,131.083,627.039,142.253,641.795Zm-1.5,3.463c-.123-.01-.236-.021-.359-.021h.113c-19.541-.532-29.911-14.294-41.347-27.933.072.072.133.144.205.215a48.74,48.74,0,0,1-4.14-4.928c-.809-1.281-1.445-2.665-2.121-4.017,3.812.994,6.876,3.709,10.114,5.82,6.353,5.154,12.819,10.093,18.69,15.811a48.392,48.392,0,0,0,10.176,8.618c3.7,2.429,7.623,4.539,11.527,6.722A17.862,17.862,0,0,0,140.757,645.258Zm739.3-34.635c6.507-14.059,11.292-29.675,24.07-39.6a102.7,102.7,0,0,0-7.2,13.239c-.011.02-.021.051-.031.071a61.853,61.853,0,0,0-3.013,6.733.146.146,0,0,0-.02.061.344.344,0,0,0-.041.093A69.936,69.936,0,0,1,879.7,611.248C879.819,611.043,879.932,610.828,880.055,610.623Zm15.924-19.694a.639.639,0,0,1,.051-.123c.758-2.173,2.019-4.089,2.859-6.21a23.313,23.313,0,0,1,2.357-4.509c1.947-2.4,2.818-5.431,4.662-7.89.144-.205.3-.41.451-.625.031-.041.051-.072.082-.113s.092-.112.133-.174.1-.133.154-.2c.348-.481.686-.973,1.025-1.465a1.367,1.367,0,0,1,.112-.154c.113-.143.226-.277.349-.41-.185.994-.246,2.019-.359,3.023-2.295,29.778-3.925,28.722-29.071,42.382C885.5,607.385,892.567,600.335,895.979,590.929Zm-38.232,50.866c11.159-14.756,23.681-30.557,43.519-32.289a76.533,76.533,0,0,0-11.169,7.573l.215-.185c-4.99,3.177-8.945,7.552-13.454,11.313l-.031.031c-1.4,1.025-2.449,2.459-3.812,3.535-4.8,4.652-10.636,7.665-16.19,11.22A8.042,8.042,0,0,0,857.747,641.795Zm20.341-11.59a.2.2,0,0,1-.062.041c5.892-5.728,12.378-10.687,18.752-15.852,1.619-1.055,3.2-2.265,4.837-3.33a18.428,18.428,0,0,1,5.277-2.49c-.676,1.352-1.322,2.736-2.132,4.017a46.119,46.119,0,0,1-4.139,4.928c.071-.071.133-.143.205-.215-11.436,13.639-21.8,27.4-41.347,27.933h.123c-.123,0-.246.011-.369.021a17.638,17.638,0,0,0-2.849.287C864.182,641.18,872.093,637.091,878.088,630.205Zm-3.433-40.926a13.547,13.547,0,0,1-.144,3.812c-.471,2.182-.625,4.426-1.065,6.6a.035.035,0,0,0-.011.03.064.064,0,0,0-.01.041c-.02.082-.031.154-.051.226-2.818,12.839-8.812,25.32-19.264,33.538,1.629-3.33,3.207-6.7,4.785-10.062-.01.02-.01.041-.021.061,3.464-7.716,8.147-14.837,11.426-22.646-.021.062-.041.134-.072.205.123-.328.267-.645.39-.963,1.1-2.777,2.131-5.574,3.053-8.413C874.02,590.9,874.378,590.1,874.655,589.279Zm-21.181,38.979c.6-9.622,3.013-19.756,9.745-26.98.062-.072.133-.143.2-.215,3.576-3.966,6.906-8.167,10.267-12.307-.133.369-.276.728-.42,1.1-1.137,2.572-2.1,5.2-3.269,7.777-.01.031-.03.062-.041.092-3.8,8.977-10.021,16.754-13.382,25.925l-.031.062c-.779,1.865-1.742,3.668-2.418,5.574,0,.021-.01.031-.021.051-.42.964-.7,1.968-1.045,2.951C853.2,630.943,853.269,629.59,853.474,628.258Z" fill="url(#linear-gradient-2)"/>
      </g>
      <path id="Path_4" data-name="Path 4" d="M746.238,504.135a75.73,75.73,0,0,0-24.367-23.288,3.988,3.988,0,0,0-.494-.368c-.411-.235-.858-.445-1.285-.668-.371-.209-.735-.412-1.077-.6l-.019.029a50.835,50.835,0,0,0-9.829-3.5,64.414,64.414,0,0,0-11.463-1.993q-4.485-.244-12.958-.5L683.5,473a13.225,13.225,0,0,0,1.994-1.246,36.454,36.454,0,0,0,9.469-8.722,24.37,24.37,0,0,0,5.482-10.965,16.4,16.4,0,0,0-2.243-12.21,22.987,22.987,0,0,0-4.734-5.233,17.38,17.38,0,0,0-8.722-3.488,13.516,13.516,0,0,0-7.227,1,14.568,14.568,0,0,0-6.229,4.735,17.309,17.309,0,0,0-3.489,7.476,13.413,13.413,0,0,0-1.993-1.246,26.107,26.107,0,0,0-6.978-2.99q-7.977-1.992-13.456,1.246a12.037,12.037,0,0,0-5.482,5.98,14.988,14.988,0,0,0-1.5,7.725,15.881,15.881,0,0,0,5.731,11.961,42.691,42.691,0,0,0,20.185,9.22,36.864,36.864,0,0,1-3.987,1.246,166.169,166.169,0,0,1-38.375,7.226q-4.24-14.7-16.7-27.784t-26.414-15.574a25.177,25.177,0,0,0-15.326,1.246q-7.1,2.99-10.465,8.222a17.543,17.543,0,0,0-2.492,12.086q.87,6.858,7.351,12.335,9.216,7.727,26.289,11.961t29.778,2.492q3.738,12.463-2.242,36.755a184.126,184.126,0,0,1-17.817,45.6q-11.838,21.306-22.8,26.539-6.98,3.486-12.086-.748t-7.1-20.433q-2.745-23.175.25-83.728a3.428,3.428,0,0,0-.25-2.243q-1.746-3.982-7.226-3.737-6.98,0-7.725,7.973-.606,9.17-1.028,17.446c-10.519,30.209-29.119,82.408-37.819,82.408h-.374c-4.112-.374-5.606-7.85-5.606-17.2,0-16.072,3.738-37.752,4.859-44.48,2.242-16.073,4.485-32.146,4.485-44.481,0-8.6-1.121-15.325-4.112-19.063-2.242-2.617-7.1-3.364-11.587-3.364a29.28,29.28,0,0,0-9.719,1.495c-8.6,3.364-15.7,13.457-21.679,25.044-6.728,14.2-11.588,31.024-14.2,41.864-2.243-13.456-2.99-31.024-2.99-47.845v-9.344h.373c23.923-9.719,47.472-57.564,51.209-90.831l.748-8.971c0-13.83-4.859-23.175-15.7-23.175a51.089,51.089,0,0,0-20.185,3.738c-19.063,8.224-29.9,35.136-35.51,66.908a367.208,367.208,0,0,0-4.718,51.547c-54.462,9.761-92.066,1.109-117.577-10.163-27.594-12.192-51.776-32.184-52.488-31.175s22.89,23.28,50.191,36.741c19.558,9.644,58.252,23.241,119.767,11.106-.011,1.206-.034,2.423-.034,3.619,0,26.913,2.243,50.835,5.607,65.413.374,3.364,4.486,4.486,8.971,4.486a28.2,28.2,0,0,0,5.607-.375c4.111-.747,9.344-2.99,9.344-7.849v-.374c2.991-15.7,8.6-36.63,16.447-52.7,5.607-10.84,11.588-19.437,18.316-22.053a21.427,21.427,0,0,1,.373,5.233c0,16.82-9.718,56.816-9.718,86.719,0,8.971,1.122,17.194,3.364,23.174,4.112,10.467,13.83,11.214,25.418,11.588h.373c11.608,0,26.8-38.344,37.829-69.324q-.9,31.806,1.766,46.47,3.235,17.7,12.335,23.05t21.555,1.62q16.692-5.233,30.526-25.168a130.32,130.32,0,0,0,19.685-44.48q5.853-24.542,1.869-43.484a177.012,177.012,0,0,0,38.625-7.476,97.771,97.771,0,0,0,12.957-4.485q3.488.25,9.968.5,7.973.252,12.335.5a66.98,66.98,0,0,1,10.84,1.744,40.511,40.511,0,0,1,11.213,4.236,4.733,4.733,0,0,0,.558.266,81.25,81.25,0,0,1,37.217,43.894A75.179,75.179,0,0,0,746.238,504.135ZM600.271,483.968q-16.949-1.992-28.408-8.971a36.31,36.31,0,0,1-10.465-8.846q-3.738-4.86-3.613-8.722a12.455,12.455,0,0,1,2.491-7.1q2.366-3.235,7.351-3.987a29.493,29.493,0,0,1,11.214.747q11.458,2.745,21.555,14.2t12.584,23.673Q606.5,484.719,600.271,483.968ZM473.834,360.794h.374c6.728,0,9.718,6.728,9.718,17.2l-.747,9.344c-3.738,29.156-23.549,74.01-45.976,84.85C437.95,446.018,443.557,361.168,473.834,360.794Zm199.948,111.96q-17.195-1.494-26.414-9.22a11.9,11.9,0,0,1-4.236-8.721,10.1,10.1,0,0,1,1-5.482,8.5,8.5,0,0,1,3.489-3.738q3.982-2.488,9.967-.748a24.216,24.216,0,0,1,5.732,2.242,13.767,13.767,0,0,1,3.987,3.49,2.39,2.39,0,0,0,1.744.747,1.994,1.994,0,0,0,2.492-1.993,18.842,18.842,0,0,1,3.489-9.47,9.04,9.04,0,0,1,9.22-3.987,10.867,10.867,0,0,1,6.23,2.492,27.727,27.727,0,0,1,3.738,3.987,11.456,11.456,0,0,1,1.494,8.722,20.57,20.57,0,0,1-4.485,9.22A32.07,32.07,0,0,1,683,467.77,91.681,91.681,0,0,1,673.782,472.754Z" fill="url(#linear-gradient-2)"/>
      <path id="Path_5" data-name="Path 5" d="M500,235.045c-146.331,0-264.955,118.624-264.955,264.955S353.669,764.955,500,764.955,764.955,646.331,764.955,500,646.331,235.045,500,235.045Zm0,518.221c-139.875,0-253.266-113.391-253.266-253.266S360.125,246.734,500,246.734,753.266,360.125,753.266,500,639.875,753.266,500,753.266Z" fill="url(#linear-gradient-2)"/>
      <g id="Group_3" data-name="Group 3">
        <g id="Group_2" data-name="Group 2">
          <path id="Path_6" data-name="Path 6" d="M335.115,790.18l13.962-27.4c3.745-7.232,11.368-9.414,19.182-5.86s11.122,10.692,8.143,18.272q-5.724,14.273-11.446,28.545c-2.969,7.552-11.317,10.2-20.66,5.963C334.958,805.448,331.378,797.384,335.115,790.18Zm20.44,9.631L367.794,771.6c1.4-3.255.213-5.953-2.864-7.349s-5.9-.522-7.426,2.676q-6.592,13.893-13.186,27.784c-1.525,3.2-.176,6.076,3.306,7.659S354.153,803.062,355.555,799.811Z" fill="url(#linear-gradient-2)"/>
          <path id="Path_7" data-name="Path 7" d="M392.4,826.873q-.3-12.232-.134-24.4-2.426-.78-4.842-1.6l-7.439,22.045q-4.963-1.676-9.891-3.492,9.747-26.439,19.5-52.876,6.564,2.421,13.2,4.546c8.031,2.564,11.9,9.054,9.8,16.926q-.816,2.99-1.633,5.98c-1.368,5.047-4.783,8.306-9.486,9.279q.378,13.242,1.34,26.549Q397.6,828.429,392.4,826.873ZM390,793.247q2.361.8,4.732,1.559c3.542,1.137,6.182-.1,7.131-3.255l1.89-6.241c.95-3.164-.467-5.6-3.822-6.676q-2.253-.724-4.5-1.482Q392.717,785.2,390,793.247Z" fill="url(#linear-gradient-2)"/>
          <path id="Path_8" data-name="Path 8" d="M439.685,798.4l.855-4.673c.631-3.487-1.1-5.841-4.358-6.491s-5.765.849-6.527,4.31l-6.543,30.05c-.762,3.457,1.16,5.949,4.844,6.688s6.413-.823,7.043-4.306q.9-4.91,1.8-9.82-2.9-.53-5.789-1.109.792-3.946,1.582-7.894,7.5,1.5,15.056,2.672l-2.76,17.821c-1.188,8.028-8.629,12.5-18.512,10.53-9.881-1.989-15.058-8.99-13.059-16.856q3.686-14.93,7.369-29.858c2-7.894,8.812-11.783,17.079-10.122s13.023,7.857,11.83,15.915q-.363,2.346-.727,4.694Q444.268,799.234,439.685,798.4Z" fill="url(#linear-gradient-2)"/>
          <path id="Path_9" data-name="Path 9" d="M474.036,829.286q-5.369-.395-10.726-.945-1.721,6.094-3.514,12.176-5.149-.561-10.286-1.264,9.442-27.148,17.221-54.67,5.87.624,11.756,1.032,2.856,28.443,7.407,56.834-5.267-.207-10.529-.561Q474.663,835.588,474.036,829.286ZM473.348,821q-1.074-11.912-1.886-23.824-2.882,11.586-6.024,23.127Q469.389,820.7,473.348,821Z" fill="url(#linear-gradient-2)"/>
          <path id="Path_10" data-name="Path 10" d="M494.913,786.332q4.857.089,9.715.029,5.835,18.85,12.985,37.465-.889-18.9-1.779-37.8,4.314-.2,8.623-.522,2.082,28.1,4.163,56.2-5.454.4-10.916.649-7.638-17.707-13.977-35.7.159,18.033.317,36.065-5.074.045-10.15-.047Q494.4,814.505,494.913,786.332Z" fill="url(#linear-gradient-2)"/>
          <path id="Path_11" data-name="Path 11" d="M534.057,784.652q4.383-.457,8.755-1.034,3.691,27.935,7.384,55.869-5.139.68-10.291,1.216Q536.981,812.679,534.057,784.652Z" fill="url(#linear-gradient-2)"/>
          <path id="Path_12" data-name="Path 12" d="M593.766,825.95q1.026,3.975,2.051,7.951c-4.708,1.212-8.262.878-10.817-1.507a19.718,19.718,0,0,1-7.9,3.368c-9.875,2.024-17.342-2.406-18.573-10.428q-2.436-15.183-4.873-30.365c-1.236-8.05,3.485-14.283,11.746-15.98s15.091,2.144,17.138,10.027q3.767,14.91,7.532,29.818a12.828,12.828,0,0,1-.162,7.26A6.679,6.679,0,0,0,593.766,825.95Zm-20.191-34.8c-.781-3.458-3.3-4.945-6.553-4.275s-4.974,3.031-4.324,6.515L568.4,823.61c.649,3.479,3.386,5.023,7.068,4.267s5.59-3.262,4.81-6.714Q576.928,806.156,573.575,791.149Z" fill="url(#linear-gradient-2)"/>
          <path id="Path_13" data-name="Path 13" d="M600.368,816.49,588.374,774.2q4.272-1.212,8.518-2.544,6.579,20.972,13.159,41.942c.981,3.151,3.846,4.2,6.981,3.164s4.815-3.592,3.723-6.705q-7.224-20.758-14.447-41.516,4.133-1.439,8.235-2.993l15.574,41.106c2.842,7.345-1.391,14.711-10.557,17.751S602.466,824.083,600.368,816.49Z" fill="url(#linear-gradient-2)"/>
          <path id="Path_14" data-name="Path 14" d="M623.337,762.066q11.768-4.861,23.224-10.693,1.829,3.586,3.655,7.173-7.6,3.873-15.348,7.328l6.4,14.337q6.449-2.877,12.806-6.031,1.788,3.606,3.578,7.212-6.5,3.228-13.1,6.172l6.724,15.072q8.689-3.877,17.224-8.224l3.655,7.173q-13.455,6.856-27.3,12.569Q634.093,788.111,623.337,762.066Z" fill="url(#linear-gradient-2)"/>
        </g>
      </g>
      <g id="Group_5" data-name="Group 5">
        <g id="Group_4" data-name="Group 4">
          <path id="Path_15" data-name="Path 15" d="M338.033,198.1l25.7,48.532q-3.987,2.113-7.924,4.358l-18.64-32.72q5.172,18.726,11.335,37.027-2.712,1.653-5.4,3.369-13.727-13.572-28.318-26.425l21.187,31.131q-3.719,2.532-7.378,5.19l-32.278-44.428q6.264-4.551,12.677-8.791,13.6,12.027,26.455,24.683-5.841-17.019-10.871-34.41Q331.244,201.7,338.033,198.1Z" fill="url(#linear-gradient-2)"/>
          <path id="Path_16" data-name="Path 16" d="M390.883,233.975q-7.262-9.291-14.964-18.318-2.295.99-4.579,2.018l9.3,20.677q-4.085,1.839-8.125,3.809-12.029-24.684-24.056-49.369,7.51-3.663,15.152-6.944c9.353-4,17.267-1.333,19.985,6.09q1.059,2.829,2.116,5.658a12.4,12.4,0,0,1-2.275,12.9q8.313,9.907,16.068,20.137Q395.175,232.236,390.883,233.975ZM368.121,210.52q2.34-1.053,4.693-2.068c3.5-1.507,4.858-4.08,3.647-7.063l-2.406-5.882c-1.21-2.977-4.1-3.847-7.794-2.256q-2.473,1.066-4.933,2.173Z" fill="url(#linear-gradient-2)"/>
          <path id="Path_17" data-name="Path 17" d="M400.3,216.851q-.322-.926-.646-1.852,4.1-1.884,8.254-3.65.307.972.614,1.945c1.218,3.815,4.072,5.449,7.508,4.434s5.047-3.552,4.205-6.659c-.931-3.306-3.032-5.406-11.556-8.994-11.39-4.616-15.59-7.521-17.543-13.269-2.717-7.672,1.167-14.769,10.848-17.649,9.688-2.846,16.762,1.008,18.679,9l.339,1.372q-4.6,1.577-9.141,3.285l-.42-1.512c-1.125-4.081-3.68-5.666-7.138-4.647s-4.863,3.369-3.823,6.658c1.016,3.315,3.84,5,12.128,8.743,11.2,5.186,14.835,8.542,16.284,14.377,1.793,7.651-2.547,14.441-10.562,16.8S402.946,224.252,400.3,216.851Z" fill="url(#linear-gradient-2)"/>
          <path id="Path_18" data-name="Path 18" d="M438.044,210.934q4.434-.945,8.89-1.756.738,4.052,1.477,8.1-4.334.788-8.647,1.708Q438.9,214.961,438.044,210.934Z" fill="url(#linear-gradient-2)"/>
          <path id="Path_19" data-name="Path 19" d="M474.961,213.693l-4.878-54.7q5.194-.462,10.4-.769.683,11.551,1.364,23.1,5.775-.341,11.557-.476-.272-11.568-.542-23.136,5.21-.122,10.42-.088-.177,27.457-.356,54.914-4.389-.029-8.778.074-.281-11.961-.56-23.921-5.642.132-11.278.464.705,11.943,1.411,23.886Q479.337,213.3,474.961,213.693Z" fill="url(#linear-gradient-2)"/>
          <path id="Path_20" data-name="Path 20" d="M530.995,201.846q-4.9-.481-9.8-.8-1.392,6-2.705,12.014-4.383-.261-8.771-.391,5.614-27.3,13.022-54.367,6.97.434,13.923,1.148,2.87,27.9,3.933,55.766-4.44-.6-8.893-1.07Q531.387,207.994,530.995,201.846Zm-.449-8.082q-.815-11.621-1.908-23.243-2.98,11.286-5.683,22.62Q526.753,193.406,530.546,193.764Z" fill="url(#linear-gradient-2)"/>
          <path id="Path_21" data-name="Path 21" d="M566.746,219.979q-.583-11.765-1.665-23.567-2.414-.5-4.833-.96-2.124,11.136-4.249,22.271-4.328-.825-8.674-1.518,4.333-27.114,8.669-54.228,8.079,1.29,16.107,2.96c9.819,2.056,14.74,8.768,12.709,16.408l-1.511,5.849a12.424,12.424,0,0,1-9.205,9.283q1.087,12.871,1.553,25.693Q571.21,221,566.746,219.979Zm-5.027-32.233q2.48.473,4.953.983c3.679.763,6.244-.572,6.962-3.711q.7-3.1,1.4-6.2c.717-3.132-1.127-5.5-5.01-6.3q-2.6-.537-5.206-1.034Z" fill="url(#linear-gradient-2)"/>
          <path id="Path_22" data-name="Path 22" d="M629.737,182.255q-15.534,23.373-29.413,47.578-5.607-2.016-11.275-3.8,3.61-27.649,5.446-55.657,5.156,1.436,10.276,3.032-2.636,21.778-6.229,43.341,10.2-19.329,21.309-38.256Q624.816,180.3,629.737,182.255Z" fill="url(#linear-gradient-2)"/>
          <path id="Path_23" data-name="Path 23" d="M637.321,185.376q4.884,2.077,9.717,4.311l-23.025,49.859q-4.071-1.881-8.185-3.632Q626.575,210.645,637.321,185.376Z" fill="url(#linear-gradient-2)"/>
          <path id="Path_24" data-name="Path 24" d="M657.794,204.139q-1.662-.864-3.331-1.709l3.717-7.352q4.769,2.415,9.48,4.983-1.782,3.273-3.566,6.545-4.593,2.632-9.075,5.378-2.13-1.119-4.274-2.2Q654.233,206.93,657.794,204.139Z" fill="url(#linear-gradient-2)"/>
          <path id="Path_25" data-name="Path 25" d="M655.15,241.461l.987-1.695q4.177,1.938,8.323,4.016l-1.08,1.731c-2.109,3.4-1.447,6.665,1.651,8.683s6.144,1.647,7.962-1.009c1.915-2.85,2.094-5.854-.9-14.787-4.12-11.808-4.678-16.9-1.584-22.127,4.065-7.049,12.075-8.662,20.817-2.995,8.726,5.7,10.6,13.751,5.746,20.383l-.825,1.146q-4.347-2.6-8.74-5.047.439-.649.878-1.3c2.378-3.5,1.863-6.519-1.253-8.551s-5.86-1.6-7.686,1.325c-1.858,2.928-1.261,6.19,1.462,15.056,3.595,12.071,3.51,17.109,0,21.987-4.669,6.321-12.87,7.253-20.091,2.539S651.247,248.283,655.15,241.461Z" fill="url(#linear-gradient-2)"/>
        </g>
      </g>
    </g>
  </g>
</svg>
