<svg xmlns="http://www.w3.org/2000/svg" width="412" height="412" viewBox="0 0 412 412">
  <g id="Group_16" data-name="Group 16" transform="translate(-544 -218)">
    <path id="Path_11" data-name="Path 11" d="M206,0C319.771,0,412,92.229,412,206S319.771,412,206,412,0,319.771,0,206,92.229,0,206,0Z" transform="translate(544 218)" opacity="0.5"/>
    <g id="Group_14" data-name="Group 14" transform="translate(-139 292.488)">
      <path id="Path_4" data-name="Path 4" d="M3744.945,2535.416v28.27a2.125,2.125,0,0,0,.529,1.587c.672.876,12.094,4.838,12.094,4.838v-13.53h1.663v9.3s.969-4.669,1.217-5.37,1.277-3.4,1.277-3.4v-27.665s-3.81-1.405-10.391.28S3744.945,2535.416,3744.945,2535.416Z" transform="translate(-2988.565 -2471.803)" fill="#fff"/>
      <path id="Path_5" data-name="Path 5" d="M3713.14,2693.89s1.67-26.633,9.148-40.635,20.764-15.371,20.764-15.371,9.668.33,14.972,7.6,6.243,21.468,6.243,21.468,1.26,12.707,5.382,21.218c3.662,7.563,10.143,10.986,11.589,11.143,3.027.328,6.2.179,10.871-5.418s7.8-16.972,7.8-16.972,9.175-13.312,17.184-14.85,14.85,8.7,14.85,8.7,8.963,12.729,16.335,13.789,13.153-9.546,13.153-9.546,7.16-9.334,14.426-10.4,14.638,6.152,14.638,6.152,4.932,10.183,11.244,11.244,14-7,14-7,5.842-6.578,12.941-7.312,19.35,11.293,32.246,14.313a75.639,75.639,0,0,0,20.964,1.394,186.863,186.863,0,0,0,25.707-3.94l-.849-28.215s-22.6,5.67-36.276,4.455-32.93-16.032-41.792-15.487a21.02,21.02,0,0,0-14,6.789s-5.834,7.266-11.456,6.789-11.032-8.7-11.032-8.7a16.833,16.833,0,0,0-16.335-8.274c-11.385,1.155-13.351,8.82-14.426,10.183s-6.732,9.936-13.153,10.015-16.335-14.47-16.335-14.47-3.585-4.79-7.3-6.964a13.413,13.413,0,0,0-7.553-1.734,19.2,19.2,0,0,0-9.424,4.031c-4.3,3.553-7.76,10.183-7.76,10.183s-10.217,22.935-18.669,22.7-15.14-23.641-15.14-23.641-.92-16.551-6.729-27.363c-3.962-7.375-13.284-10.432-16.318-9.881-7.346,1.333-7.976,1.062-15.082,8.237a32.382,32.382,0,0,0-6.579,8.971c-1.868,3.824-3.367,9.055-4.935,13.457C3708.979,2661.548,3713.14,2693.89,3713.14,2693.89Z" transform="translate(-2980 -2503.478)" fill="#fff"/>
      <text id="Draupadi" transform="translate(798 114)" fill="#fff" font-size="43" font-family="BambinoNew-SemiBold, Bambino New" font-weight="600" letter-spacing="0.127em"><tspan x="0" y="0">Draupadi</tspan></text>
    </g>
  </g>
</svg>
