<svg xmlns="http://www.w3.org/2000/svg" width="420" height="425" viewBox="0 0 412 412">
  <g id="Group_14" data-name="Group 14" transform="translate(-683 74.488)">
    <path id="Path_1136" data-name="Path 1136" d="M206,0C319.771,0,412,92.229,412,206S319.771,412,206,412,0,319.771,0,206,92.229,0,206,0Z" transform="translate(683 -74.488)" opacity="0.5"/>
    <path id="Path_4" data-name="Path 4" d="M3744.945,2535.416v28.27a2.125,2.125,0,0,0,.529,1.587c.672.876,12.094,4.838,12.094,4.838v-13.53h1.663v9.3s.969-4.669,1.217-5.37,1.277-3.4,1.277-3.4v-27.665s-3.81-1.405-10.391.28S3744.945,2535.416,3744.945,2535.416Z" transform="translate(-2988.565 -2471.803)" fill="#fff"/>
    <path id="Path_5" data-name="Path 5" d="M3713.14,2693.89s1.67-26.633,9.148-40.635,20.764-15.371,20.764-15.371,9.668.33,14.972,7.6,6.243,21.468,6.243,21.468,1.26,12.707,5.382,21.218c3.662,7.563,10.143,10.986,11.589,11.143,3.027.328,6.2.179,10.871-5.418s7.8-16.972,7.8-16.972,9.175-13.312,17.184-14.85,14.85,8.7,14.85,8.7,8.963,12.729,16.335,13.789,13.153-9.546,13.153-9.546,7.16-9.334,14.426-10.4,14.638,6.152,14.638,6.152,4.932,10.183,11.244,11.244,14-7,14-7,5.842-6.578,12.941-7.312,19.35,11.293,32.246,14.313a75.639,75.639,0,0,0,20.964,1.394,186.863,186.863,0,0,0,25.707-3.94l-.849-28.215s-22.6,5.67-36.276,4.455-32.93-16.032-41.792-15.487a21.02,21.02,0,0,0-14,6.789s-5.834,7.266-11.456,6.789-11.032-8.7-11.032-8.7a16.833,16.833,0,0,0-16.335-8.274c-11.385,1.155-13.351,8.82-14.426,10.183s-6.732,9.936-13.153,10.015-16.335-14.47-16.335-14.47-3.585-4.79-7.3-6.964a13.413,13.413,0,0,0-7.553-1.734,19.2,19.2,0,0,0-9.424,4.031c-4.3,3.553-7.76,10.183-7.76,10.183s-10.217,22.935-18.669,22.7-15.14-23.641-15.14-23.641-.92-16.551-6.729-27.363c-3.962-7.375-13.284-10.432-16.318-9.881-7.346,1.333-7.976,1.062-15.082,8.237a32.382,32.382,0,0,0-6.579,8.971c-1.868,3.824-3.367,9.055-4.935,13.457C3708.979,2661.548,3713.14,2693.89,3713.14,2693.89Z" transform="translate(-2980 -2503.478)" fill="#fff"/>
    <path id="Path_1135" data-name="Path 1135" d="M3.947,0V-30.108h8.314q15.915,0,15.915,14.676a14.79,14.79,0,0,1-4.42,11.2Q19.337,0,11.926,0ZM7.475-26.917V-3.191h4.493q5.921,0,9.217-3.17t3.3-8.986q0-11.569-12.3-11.569Zm42.834,8.9a4.211,4.211,0,0,0-2.6-.693,4.394,4.394,0,0,0-3.685,2.079,9.61,9.61,0,0,0-1.48,5.669V0H39.1V-21.5H42.54v4.43h.084a7.508,7.508,0,0,1,2.247-3.538,5.123,5.123,0,0,1,3.38-1.27,5.621,5.621,0,0,1,2.058.294ZM74.9,0H71.454V-3.359H71.37A7.209,7.209,0,0,1,64.756.5a7.068,7.068,0,0,1-5.029-1.7,5.892,5.892,0,0,1-1.816-4.514q0-6.026,7.1-7.013l6.446-.9q0-5.48-4.43-5.48a10.584,10.584,0,0,0-7.013,2.646v-3.527A13.324,13.324,0,0,1,67.318-22q7.58,0,7.58,8.021ZM71.454-10.876l-5.186.714a8.42,8.42,0,0,0-3.611,1.186,3.421,3.421,0,0,0-1.218,3.013,3.282,3.282,0,0,0,1.123,2.572,4.341,4.341,0,0,0,2.992,1,5.527,5.527,0,0,0,4.231-1.8,6.414,6.414,0,0,0,1.669-4.546ZM104.231,0h-3.443V-3.4H100.7A7.071,7.071,0,0,1,94.069.5Q86.384.5,86.384-8.65V-21.5h3.422V-9.2q0,6.8,5.207,6.8A5.268,5.268,0,0,0,99.16-4.252a7.11,7.11,0,0,0,1.627-4.861V-21.5h3.443Zm15.938-3.107h-.084v13h-3.443V-21.5h3.443v3.779h.084A8.142,8.142,0,0,1,127.6-22a7.873,7.873,0,0,1,6.488,2.887,11.957,11.957,0,0,1,2.331,7.737A13.326,13.326,0,0,1,133.8-2.74,8.738,8.738,0,0,1,126.615.5,7.193,7.193,0,0,1,120.169-3.107Zm-.084-8.671v3a6.393,6.393,0,0,0,1.732,4.525,5.752,5.752,0,0,0,4.4,1.858,5.764,5.764,0,0,0,4.9-2.394,10.981,10.981,0,0,0,1.774-6.656,8.668,8.668,0,0,0-1.659-5.627,5.489,5.489,0,0,0-4.493-2.037,6.1,6.1,0,0,0-4.829,2.089A7.671,7.671,0,0,0,120.085-11.779ZM162.2,0h-3.443V-3.359h-.084A7.209,7.209,0,0,1,152.064.5a7.068,7.068,0,0,1-5.029-1.7,5.892,5.892,0,0,1-1.816-4.514q0-6.026,7.1-7.013l6.446-.9q0-5.48-4.43-5.48a10.584,10.584,0,0,0-7.013,2.646v-3.527A13.324,13.324,0,0,1,154.625-22q7.58,0,7.58,8.021Zm-3.443-10.876-5.186.714a8.42,8.42,0,0,0-3.611,1.186,3.421,3.421,0,0,0-1.218,3.013,3.282,3.282,0,0,0,1.123,2.572,4.341,4.341,0,0,0,2.992,1,5.527,5.527,0,0,0,4.231-1.8,6.414,6.414,0,0,0,1.669-4.546ZM192.5,0h-3.443V-3.653h-.084A7.949,7.949,0,0,1,181.586.5a8.03,8.03,0,0,1-6.477-2.887,11.843,11.843,0,0,1-2.425-7.863,12.885,12.885,0,0,1,2.688-8.545A8.864,8.864,0,0,1,182.531-22a6.892,6.892,0,0,1,6.446,3.485h.084V-31.83H192.5Zm-3.443-9.721v-3.17a6.151,6.151,0,0,0-1.722-4.409,5.775,5.775,0,0,0-4.367-1.806,5.946,5.946,0,0,0-4.955,2.31,10.121,10.121,0,0,0-1.806,6.383,9.1,9.1,0,0,0,1.732,5.868,5.661,5.661,0,0,0,4.651,2.152,5.881,5.881,0,0,0,4.672-2.079A7.744,7.744,0,0,0,189.061-9.721ZM206.7-26.959a2.182,2.182,0,0,1-1.575-.63,2.126,2.126,0,0,1-.651-1.6,2.16,2.16,0,0,1,.651-1.606,2.163,2.163,0,0,1,1.575-.64,2.224,2.224,0,0,1,1.606.64,2.143,2.143,0,0,1,.661,1.606,2.128,2.128,0,0,1-.661,1.575A2.2,2.2,0,0,1,206.7-26.959ZM208.379,0h-3.443V-21.5h3.443Z" transform="translate(798 114)" fill="#fff"/>
  </g>
</svg>
