<svg xmlns="http://www.w3.org/2000/svg" width="79" height="79" viewBox="0 0 139 139">
  <g id="Group_1567" data-name="Group 1567" transform="translate(-544 -1314.696)">
    <circle id="Ellipse_5" data-name="Ellipse 5" cx="69.5" cy="69.5" r="69.5" transform="translate(544 1314.696)" fill="#e71e2d"/>
    <path id="Path_2" data-name="Path 2" d="M1210.917,820.379v11.553a.869.869,0,0,0,.216.649,40.979,40.979,0,0,0,4.944,1.977v-5.53h.679v3.8s.4-1.908.5-2.195.522-1.389.522-1.389V817.935a7.7,7.7,0,0,0-4.246.115C1210.839,818.739,1210.917,820.379,1210.917,820.379Z" transform="translate(-651.704 537.775)"/>
    <path id="Path_3" data-name="Path 3" d="M1200.731,878.241s.683-10.886,3.74-16.609a11.777,11.777,0,0,1,8.487-6.283s3.952.133,6.119,3.1,2.552,8.774,2.552,8.774a31.052,31.052,0,0,0,2.2,8.673,8.7,8.7,0,0,0,4.736,4.554c1.237.133,2.536.073,4.443-2.213s3.188-6.938,3.188-6.938,3.75-5.441,7.023-6.07,6.069,3.555,6.069,3.555,3.664,5.2,6.678,5.636,5.376-3.9,5.376-3.9,2.927-3.815,5.9-4.249,5.982,2.514,5.982,2.514,2.017,4.161,4.6,4.6,5.723-2.862,5.723-2.862,2.39-2.688,5.289-2.988,7.91,4.616,13.18,5.85a30.934,30.934,0,0,0,8.569.57,76.411,76.411,0,0,0,10.508-1.61l-.347-11.532s-9.237,2.317-14.828,1.821-13.46-6.551-17.082-6.329a8.589,8.589,0,0,0-5.723,2.775s-2.385,2.97-4.683,2.775-4.51-3.555-4.51-3.555a6.881,6.881,0,0,0-6.677-3.381,6.675,6.675,0,0,0-5.9,4.161c-.439.556-2.751,4.062-5.376,4.094s-6.677-5.915-6.677-5.915a12.739,12.739,0,0,0-2.982-2.847,5.486,5.486,0,0,0-3.088-.708,7.854,7.854,0,0,0-3.851,1.647,16.022,16.022,0,0,0-3.171,4.161s-4.176,9.374-7.631,9.278-6.188-9.663-6.188-9.663-.376-6.765-2.75-11.184c-1.619-3.015-5.43-4.264-6.67-4.039l-1.318.238a11.2,11.2,0,0,0-4.846,3.128,13.7,13.7,0,0,0-2.689,3.667c-.658,1.309-1.377,3.7-2.017,5.5C1199.032,865.024,1200.731,878.241,1200.731,878.241Z" transform="translate(-648.877 530.835)" fill="#fff"/>
    <path id="Path_7" data-name="Path 7" d="M11.88-10.9a5.937,5.937,0,0,1-1.865,4.464A5.937,5.937,0,0,1,5.549-4.571H1.771V-17.231h3.78a5.95,5.95,0,0,1,4.464,1.858A5.931,5.931,0,0,1,11.88-10.9ZM3.353-15.645v9.494h2.2A4.465,4.465,0,0,0,8.9-7.549,4.465,4.465,0,0,0,10.3-10.9a4.465,4.465,0,0,0-1.4-3.349,4.465,4.465,0,0,0-3.349-1.4Zm18.566,1.67-.861,1.6a2.083,2.083,0,0,0-1.424-.545,1.61,1.61,0,0,0-1.292.782,2.921,2.921,0,0,0-.571,1.767v5.8H16.187v-9.494H17.77v.774a2.7,2.7,0,0,1,.993-.87,2.774,2.774,0,0,1,1.345-.36A2.918,2.918,0,0,1,21.919-13.975ZM33.628-8.349v3.78H32.046V-5.835A3.644,3.644,0,0,1,30.7-4.657a4.072,4.072,0,0,1-2.066.563,4.072,4.072,0,0,1-2.725-.924,3,3,0,0,1-1.09-2.4,3,3,0,0,1,1.046-2.3,4.309,4.309,0,0,1,3-.949q.563,0,1.134.035t.923.079q.351.044.659.089t.325.044a2.533,2.533,0,0,0-2.76-2.585,4.789,4.789,0,0,0-3.024.914l-.774-1.266a5.284,5.284,0,0,1,1.732-.87,6.562,6.562,0,0,1,1.907-.31,4.144,4.144,0,0,1,3.8,1.688,8.736,8.736,0,0,1,.845,4.5Zm-1.6-.528q0-.018-1.2-.105-1.178-.105-2.2-.105a2.885,2.885,0,0,0-1.582.4,1.337,1.337,0,0,0-.651,1.16A1.738,1.738,0,0,0,27-6.178a2.4,2.4,0,0,0,1.617.5,3.425,3.425,0,0,0,2.479-.9,3.054,3.054,0,0,0,.932-2.3Zm6.064.07v-5.256h1.583v5.345q0,3.024,2.637,3.024a3.113,3.113,0,0,0,2.066-.729,2.446,2.446,0,0,0,.87-1.978v-5.662h1.582v9.494H45.249v-.774a3.121,3.121,0,0,1-1.213.826,4.116,4.116,0,0,1-1.688.4,4.21,4.21,0,0,1-3.191-1.116,5.059,5.059,0,0,1-1.063-3.578Zm15.05,3.464V-.455H51.561V-14.063h1.582v.861a2.775,2.775,0,0,1,1.213-.914,4.3,4.3,0,0,1,1.916-.422,4.368,4.368,0,0,1,3.419,1.5,5.276,5.276,0,0,1,1.4,3.754,5.3,5.3,0,0,1-1.328,3.71,4.515,4.515,0,0,1-3.508,1.461,4.811,4.811,0,0,1-1.837-.4,2.962,2.962,0,0,1-1.274-.83Zm6.364-3.991a3.81,3.81,0,0,0-.87-2.5,2.732,2.732,0,0,0-2.33-1.125,3.135,3.135,0,0,0-2.233.861,3.637,3.637,0,0,0-.932,2.76,3.832,3.832,0,0,0,.87,2.7,2.978,2.978,0,0,0,2.294.941,2.833,2.833,0,0,0,2.339-1.081,3.981,3.981,0,0,0,.862-2.559Zm14.329.984v3.78H72.253V-5.835a3.644,3.644,0,0,1-1.345,1.178,4.072,4.072,0,0,1-2.067.563,4.072,4.072,0,0,1-2.725-.923,3,3,0,0,1-1.09-2.4,3,3,0,0,1,1.046-2.3,4.309,4.309,0,0,1,3-.949q.563,0,1.134.035t.923.079q.351.044.659.089t.325.044a2.533,2.533,0,0,0-2.76-2.585,4.788,4.788,0,0,0-3.024.914l-.774-1.266a5.283,5.283,0,0,1,1.732-.87,6.562,6.562,0,0,1,1.907-.31,4.144,4.144,0,0,1,3.8,1.688,8.719,8.719,0,0,1,.846,4.5Zm-1.6-.528q0-.018-1.2-.105-1.178-.105-2.2-.105a2.885,2.885,0,0,0-1.582.4,1.337,1.337,0,0,0-.651,1.16,1.738,1.738,0,0,0,.6,1.345,2.4,2.4,0,0,0,1.617.5,3.425,3.425,0,0,0,2.479-.9,3.054,3.054,0,0,0,.933-2.3Zm13.731-4.413v-3.939h1.582V-4.569H85.967v-.879a2.829,2.829,0,0,1-1.239.958,4.515,4.515,0,0,1-1.89.4,4.368,4.368,0,0,1-3.419-1.5,5.276,5.276,0,0,1-1.4-3.754,5.3,5.3,0,0,1,1.328-3.71,4.515,4.515,0,0,1,3.508-1.461,4.811,4.811,0,0,1,1.837.4,2.962,2.962,0,0,1,1.274.83ZM79.6-9.3a3.81,3.81,0,0,0,.87,2.5A2.732,2.732,0,0,0,82.8-5.677a3.135,3.135,0,0,0,2.233-.861,3.637,3.637,0,0,0,.932-2.76A3.832,3.832,0,0,0,85.1-12a2.978,2.978,0,0,0-2.294-.941,2.833,2.833,0,0,0-2.339,1.081A3.981,3.981,0,0,0,79.6-9.3ZM93.9-15.645H92.313v-1.582H93.9Zm0,11.076H92.313v-9.494H93.9Z" transform="translate(575 1378.413)" fill="#fff" stroke="#fff" stroke-width="1"/>
  </g>
</svg>
