<svg xmlns="http://www.w3.org/2000/svg" xmlns:xlink="http://www.w3.org/1999/xlink" width="262" height="262" viewBox="0 0 262 262">
  <defs>
    <filter id="Rectangle_7894" x="0" y="0" width="262" height="262" filterUnits="userSpaceOnUse">
      <feOffset dy="3" input="SourceAlpha"/>
      <feGaussianBlur stdDeviation="3" result="blur"/>
      <feFlood flood-opacity="0.502"/>
      <feComposite operator="in" in2="blur"/>
      <feComposite in="SourceGraphic"/>
    </filter>
  </defs>
  <g id="Group_1574" data-name="Group 1574" transform="translate(9 6)">
    <g transform="matrix(1, 0, 0, 1, -9, -6)" filter="url(#Rectangle_7894)">
      <rect id="Rectangle_7894-2" data-name="Rectangle 7894" width="244" height="244" rx="33" transform="translate(9 6)" fill="#fff"/>
    </g>
    <path id="Path_1138" data-name="Path 1138" d="M4.354-5.084H6.767v1.409H4.354V-.927h-1.5V-3.675H.432V-5.084H2.856V-7.655h1.5ZM14.092-1.1a1.4,1.4,0,0,0,.958-.336,1.149,1.149,0,0,0,.406-.832H16.91a2.266,2.266,0,0,1-.4,1.2A2.623,2.623,0,0,1,15.495-.2a3.027,3.027,0,0,1-1.384.324,2.928,2.928,0,0,1-2.285-.933,3.7,3.7,0,0,1-.844-2.577v-.159a3.639,3.639,0,0,1,.838-2.51A2.9,2.9,0,0,1,14.1-7a2.822,2.822,0,0,1,2,.714,2.558,2.558,0,0,1,.809,1.876H15.457a1.412,1.412,0,0,0-.4-.971,1.3,1.3,0,0,0-.962-.381,1.357,1.357,0,0,0-1.155.543,2.769,2.769,0,0,0-.413,1.647v.248a2.815,2.815,0,0,0,.4,1.666A1.356,1.356,0,0,0,14.092-1.1ZM19.716,0H18.173V-9.75h1.542Zm3.32,0H21.493V-6.868h1.542ZM21.4-8.652a.819.819,0,0,1,.225-.59.851.851,0,0,1,.644-.235.862.862,0,0,1,.647.235.812.812,0,0,1,.229.59.794.794,0,0,1-.229.581.869.869,0,0,1-.647.232.858.858,0,0,1-.644-.232A.8.8,0,0,1,21.4-8.652ZM27.536-1.1a1.4,1.4,0,0,0,.958-.336,1.149,1.149,0,0,0,.406-.832h1.454a2.266,2.266,0,0,1-.4,1.2A2.623,2.623,0,0,1,28.939-.2a3.027,3.027,0,0,1-1.384.324A2.928,2.928,0,0,1,25.27-.806a3.7,3.7,0,0,1-.844-2.577v-.159a3.639,3.639,0,0,1,.838-2.51A2.9,2.9,0,0,1,27.549-7a2.822,2.822,0,0,1,2,.714,2.558,2.558,0,0,1,.809,1.876H28.9a1.412,1.412,0,0,0-.4-.971,1.3,1.3,0,0,0-.962-.381,1.357,1.357,0,0,0-1.155.543,2.769,2.769,0,0,0-.413,1.647v.248a2.815,2.815,0,0,0,.4,1.666A1.356,1.356,0,0,0,27.536-1.1ZM33.75-2.945l-.686.7V0H31.522V-9.75h1.542v5.624l.482-.6,1.9-2.139H37.3L34.747-4.005,37.572,0H35.788Zm9.312-3.174A2.414,2.414,0,0,1,44.973-7q2.2,0,2.228,2.507V0H45.659V-4.431a1.356,1.356,0,0,0-.308-1.006,1.259,1.259,0,0,0-.9-.3,1.486,1.486,0,0,0-1.384.825V0H41.52V-9.75h1.542ZM51.784.127A3.191,3.191,0,0,1,49.407-.8a3.35,3.35,0,0,1-.911-2.46v-.19a4.121,4.121,0,0,1,.4-1.838,3.02,3.02,0,0,1,1.114-1.26A2.945,2.945,0,0,1,51.606-7a2.7,2.7,0,0,1,2.168.9,3.785,3.785,0,0,1,.765,2.533v.622H50.051A2.063,2.063,0,0,0,50.619-1.6a1.706,1.706,0,0,0,1.254.5A2.089,2.089,0,0,0,53.6-1.961l.832.793a2.777,2.777,0,0,1-1.1.955A3.448,3.448,0,0,1,51.784.127ZM51.6-5.757a1.3,1.3,0,0,0-1.025.444,2.3,2.3,0,0,0-.5,1.238h2.939v-.114A1.875,1.875,0,0,0,52.6-5.361,1.289,1.289,0,0,0,51.6-5.757Zm7.731.3A3.817,3.817,0,0,0,58.7-5.51a1.415,1.415,0,0,0-1.428.813V0H55.732V-6.868h1.473l.038.768A1.738,1.738,0,0,1,58.792-7a1.444,1.444,0,0,1,.546.089Zm4,5.586A3.191,3.191,0,0,1,60.953-.8a3.35,3.35,0,0,1-.911-2.46v-.19a4.121,4.121,0,0,1,.4-1.838,3.02,3.02,0,0,1,1.114-1.26A2.945,2.945,0,0,1,63.153-7a2.7,2.7,0,0,1,2.168.9,3.785,3.785,0,0,1,.765,2.533v.622H61.6A2.063,2.063,0,0,0,62.166-1.6a1.706,1.706,0,0,0,1.254.5,2.089,2.089,0,0,0,1.727-.857l.832.793a2.777,2.777,0,0,1-1.1.955A3.448,3.448,0,0,1,63.331.127Zm-.184-5.884a1.3,1.3,0,0,0-1.025.444,2.3,2.3,0,0,0-.5,1.238h2.939v-.114a1.875,1.875,0,0,0-.413-1.171A1.289,1.289,0,0,0,63.146-5.757Zm9.306-2.78v1.669h1.212v1.143H72.452v3.834a.844.844,0,0,0,.156.568.721.721,0,0,0,.555.175,2.376,2.376,0,0,0,.54-.063V-.019a3.8,3.8,0,0,1-1.016.146q-1.777,0-1.777-1.961V-5.726H69.78V-6.868h1.13V-8.538ZM74.363-3.5a4.05,4.05,0,0,1,.4-1.819A2.921,2.921,0,0,1,75.886-6.56,3.166,3.166,0,0,1,77.549-7a3,3,0,0,1,2.257.9,3.52,3.52,0,0,1,.936,2.374l.006.362a4.086,4.086,0,0,1-.39,1.815A2.886,2.886,0,0,1,79.241-.311a3.189,3.189,0,0,1-1.679.438,2.979,2.979,0,0,1-2.326-.968,3.707,3.707,0,0,1-.873-2.58Zm1.542.133a2.767,2.767,0,0,0,.438,1.66,1.424,1.424,0,0,0,1.219.6,1.408,1.408,0,0,0,1.216-.609A3.057,3.057,0,0,0,79.212-3.5a2.732,2.732,0,0,0-.448-1.65,1.429,1.429,0,0,0-1.216-.609,1.416,1.416,0,0,0-1.2.6A3,3,0,0,0,75.905-3.364ZM89.451-.673a2.392,2.392,0,0,1-1.93.8A2.132,2.132,0,0,1,85.83-.527a2.781,2.781,0,0,1-.574-1.892v-4.45H86.8v4.431q0,1.308,1.085,1.308A1.524,1.524,0,0,0,89.4-1.936V-6.868h1.542V0H89.489Zm9.077-2.691A4.089,4.089,0,0,1,97.8-.822a2.318,2.318,0,0,1-1.942.949,2.333,2.333,0,0,1-1.809-.743V2.641H92.511V-6.868h1.422l.063.7A2.266,2.266,0,0,1,95.843-7a2.341,2.341,0,0,1,1.971.936,4.2,4.2,0,0,1,.714,2.6ZM96.992-3.5a2.865,2.865,0,0,0-.409-1.631,1.331,1.331,0,0,0-1.171-.6,1.419,1.419,0,0,0-1.358.781V-1.9a1.433,1.433,0,0,0,1.371.8A1.329,1.329,0,0,0,96.576-1.7,3.153,3.153,0,0,0,96.992-3.5ZM101.474,0H99.931V-9.75h1.542Zm1.39-3.5a4.05,4.05,0,0,1,.4-1.819,2.921,2.921,0,0,1,1.124-1.244A3.166,3.166,0,0,1,106.05-7a3,3,0,0,1,2.257.9,3.52,3.52,0,0,1,.936,2.374l.006.362a4.086,4.086,0,0,1-.39,1.815,2.886,2.886,0,0,1-1.117,1.238,3.189,3.189,0,0,1-1.679.438,2.979,2.979,0,0,1-2.326-.968,3.707,3.707,0,0,1-.873-2.58Zm1.542.133a2.767,2.767,0,0,0,.438,1.66,1.424,1.424,0,0,0,1.219.6,1.408,1.408,0,0,0,1.216-.609,3.057,3.057,0,0,0,.435-1.784,2.732,2.732,0,0,0-.448-1.65,1.429,1.429,0,0,0-1.216-.609,1.416,1.416,0,0,0-1.2.6A3,3,0,0,0,104.406-3.364ZM114.658,0a2.38,2.38,0,0,1-.178-.641,2.4,2.4,0,0,1-1.8.768,2.423,2.423,0,0,1-1.688-.59,1.889,1.889,0,0,1-.654-1.46,1.95,1.95,0,0,1,.816-1.685,3.953,3.953,0,0,1,2.333-.587h.946v-.451a1.2,1.2,0,0,0-.3-.854,1.183,1.183,0,0,0-.908-.321,1.359,1.359,0,0,0-.863.263.815.815,0,0,0-.336.67h-1.542a1.712,1.712,0,0,1,.375-1.057,2.5,2.5,0,0,1,1.019-.771A3.579,3.579,0,0,1,113.312-7a2.882,2.882,0,0,1,1.923.606,2.162,2.162,0,0,1,.736,1.7v3.1a3.511,3.511,0,0,0,.26,1.479V0Zm-1.695-1.111a1.755,1.755,0,0,0,.86-.222,1.484,1.484,0,0,0,.606-.6V-3.225H113.6a2.274,2.274,0,0,0-1.289.3.966.966,0,0,0-.432.844.9.9,0,0,0,.3.708A1.143,1.143,0,0,0,112.963-1.111ZM117.3-3.485a4.083,4.083,0,0,1,.736-2.549A2.359,2.359,0,0,1,120.009-7a2.242,2.242,0,0,1,1.765.762V-9.75h1.542V0h-1.4l-.076-.711A2.274,2.274,0,0,1,120,.127a2.346,2.346,0,0,1-1.952-.971A4.233,4.233,0,0,1,117.3-3.485Zm1.542.133a2.859,2.859,0,0,0,.4,1.635,1.308,1.308,0,0,0,1.146.587,1.457,1.457,0,0,0,1.384-.844V-4.907a1.435,1.435,0,0,0-1.371-.825,1.318,1.318,0,0,0-1.155.594A3.184,3.184,0,0,0,118.841-3.352Zm15.336-.013a4.089,4.089,0,0,1-.724,2.542,2.318,2.318,0,0,1-1.942.949A2.333,2.333,0,0,1,129.7-.616V2.641h-1.542V-6.868h1.422l.063.7A2.266,2.266,0,0,1,131.492-7a2.341,2.341,0,0,1,1.971.936,4.2,4.2,0,0,1,.714,2.6ZM132.641-3.5a2.865,2.865,0,0,0-.409-1.631,1.331,1.331,0,0,0-1.171-.6,1.419,1.419,0,0,0-1.358.781V-1.9a1.433,1.433,0,0,0,1.371.8,1.329,1.329,0,0,0,1.152-.594A3.153,3.153,0,0,0,132.641-3.5ZM137-6.119A2.414,2.414,0,0,1,138.912-7q2.2,0,2.228,2.507V0H139.6V-4.431a1.356,1.356,0,0,0-.308-1.006,1.259,1.259,0,0,0-.9-.3A1.486,1.486,0,0,0,137-4.907V0h-1.542V-9.75H137ZM142.41-3.5a4.05,4.05,0,0,1,.4-1.819,2.921,2.921,0,0,1,1.124-1.244A3.166,3.166,0,0,1,145.6-7a3,3,0,0,1,2.257.9,3.52,3.52,0,0,1,.936,2.374l.006.362a4.086,4.086,0,0,1-.39,1.815,2.886,2.886,0,0,1-1.117,1.238,3.189,3.189,0,0,1-1.679.438,2.979,2.979,0,0,1-2.326-.968,3.707,3.707,0,0,1-.873-2.58Zm1.542.133a2.767,2.767,0,0,0,.438,1.66,1.424,1.424,0,0,0,1.219.6,1.408,1.408,0,0,0,1.216-.609,3.057,3.057,0,0,0,.435-1.784,2.732,2.732,0,0,0-.448-1.65,1.429,1.429,0,0,0-1.216-.609,1.416,1.416,0,0,0-1.2.6A3,3,0,0,0,143.952-3.364Zm8.081-5.173v1.669h1.212v1.143h-1.212v3.834a.844.844,0,0,0,.156.568.721.721,0,0,0,.555.175,2.376,2.376,0,0,0,.54-.063V-.019a3.8,3.8,0,0,1-1.016.146q-1.777,0-1.777-1.961V-5.726h-1.13V-6.868h1.13V-8.538Zm1.911,5.04a4.05,4.05,0,0,1,.4-1.819,2.921,2.921,0,0,1,1.124-1.244A3.166,3.166,0,0,1,157.13-7a3,3,0,0,1,2.257.9,3.52,3.52,0,0,1,.936,2.374l.006.362a4.086,4.086,0,0,1-.39,1.815,2.886,2.886,0,0,1-1.117,1.238,3.189,3.189,0,0,1-1.679.438,2.979,2.979,0,0,1-2.326-.968,3.707,3.707,0,0,1-.873-2.58Zm1.542.133a2.767,2.767,0,0,0,.438,1.66,1.424,1.424,0,0,0,1.219.6,1.408,1.408,0,0,0,1.216-.609,3.057,3.057,0,0,0,.435-1.784,2.732,2.732,0,0,0-.448-1.65,1.429,1.429,0,0,0-1.216-.609,1.416,1.416,0,0,0-1.2.6A3,3,0,0,0,155.486-3.364Z" transform="translate(42 224)" fill="#787878"/>
    <path id="ic_image_24px" d="M147.134,131.119V19.015A16.062,16.062,0,0,0,131.119,3H19.015A16.062,16.062,0,0,0,3,19.015v112.1a16.062,16.062,0,0,0,16.015,16.015h112.1A16.062,16.062,0,0,0,147.134,131.119ZM47.041,87.078l20.019,24.1L95.085,75.067l36.033,48.045H19.015Z" transform="translate(46.434 17.163)" fill="#a4a4a4"/>
    <path id="ic_file_download_24px" d="M34.356,15.581H25.968V3H13.387V15.581H5L19.678,30.259ZM5,34.453v4.194H34.356V34.453Z" transform="translate(141.678 209) rotate(180)" fill="#a4a4a4"/>
  </g>
</svg>
