<svg xmlns="http://www.w3.org/2000/svg" width="79" height="79" viewBox="0 0 59 59">
  <g id="Group_18" data-name="Group 18" transform="translate(-1134 -592)">
    <circle id="Ellipse_5" data-name="Ellipse 5" cx="29.5" cy="29.5" r="29.5" transform="translate(1134 592)" fill="#e71e2d"/>
    <g id="Group_17" data-name="Group 17" transform="translate(1143.589 611.889)">
      <g id="Group_1" data-name="Group 1" transform="translate(0 0)">
        <path id="Path_2" data-name="Path 2" d="M1210.915,818.595v3.831a.289.289,0,0,0,.072.215,13.59,13.59,0,0,0,1.639.656v-1.834h.225v1.26s.131-.633.165-.728.173-.461.173-.461v-3.75a2.555,2.555,0,0,0-1.408.038C1210.889,818.051,1210.915,818.595,1210.915,818.595Z" transform="translate(-1208.318 -817.71)"/>
        <path id="Path_3" data-name="Path 3" d="M1200.416,855.272a17.284,17.284,0,0,1,1.24-5.507,3.905,3.905,0,0,1,2.814-2.083,2.85,2.85,0,0,1,2.029,1.029,6.871,6.871,0,0,1,.846,2.909,10.3,10.3,0,0,0,.73,2.876,2.884,2.884,0,0,0,1.57,1.51c.41.044.841.024,1.473-.734a7.664,7.664,0,0,0,1.057-2.3s1.244-1.8,2.329-2.013,2.013,1.179,2.013,1.179,1.215,1.725,2.214,1.869,1.783-1.294,1.783-1.294a4,4,0,0,1,1.955-1.409,2.852,2.852,0,0,1,1.984.834s.669,1.38,1.524,1.524,1.9-.949,1.9-.949a3.211,3.211,0,0,1,1.754-.991c.961-.1,2.623,1.531,4.37,1.94a10.25,10.25,0,0,0,2.841.189,25.325,25.325,0,0,0,3.484-.534l-.115-3.824a19.5,19.5,0,0,1-4.917.6c-1.854-.164-4.463-2.172-5.665-2.1a2.849,2.849,0,0,0-1.9.92s-.791.985-1.553.92-1.5-1.179-1.5-1.179a2.282,2.282,0,0,0-2.214-1.121,2.214,2.214,0,0,0-1.955,1.38c-.146.184-.912,1.347-1.783,1.357s-2.214-1.961-2.214-1.961a4.222,4.222,0,0,0-.989-.944,1.818,1.818,0,0,0-1.024-.235,2.6,2.6,0,0,0-1.277.546,5.31,5.31,0,0,0-1.052,1.38s-1.385,3.108-2.53,3.076-2.052-3.2-2.052-3.2a10.652,10.652,0,0,0-.912-3.709,2.685,2.685,0,0,0-2.212-1.339l-.437.079a3.712,3.712,0,0,0-1.607,1.037,4.546,4.546,0,0,0-.892,1.216c-.218.434-.456,1.227-.669,1.824C1199.853,850.889,1200.416,855.272,1200.416,855.272Z" transform="translate(-1200.26 -837.501)" fill="#fff"/>
        <path id="Path_7" data-name="Path 7" d="M5.123-15.132a1.969,1.969,0,0,1-.619,1.48,1.969,1.969,0,0,1-1.481.618H1.771v-4.2H3.024a1.973,1.973,0,0,1,1.48.616A1.967,1.967,0,0,1,5.123-15.132ZM2.3-16.706v3.148h.729a1.481,1.481,0,0,0,1.111-.464A1.481,1.481,0,0,0,4.6-15.132a1.481,1.481,0,0,0-.464-1.111,1.481,1.481,0,0,0-1.111-.464Zm6.156.554-.286.531a.691.691,0,0,0-.472-.181.534.534,0,0,0-.428.259.969.969,0,0,0-.189.586v1.924H6.551v-3.148h.525v.257a.9.9,0,0,1,.329-.289.92.92,0,0,1,.446-.119A.967.967,0,0,1,8.452-16.152Zm3.883,1.866v1.253H11.81v-.42a1.208,1.208,0,0,1-.446.391,1.35,1.35,0,0,1-.685.187,1.35,1.35,0,0,1-.9-.306.994.994,0,0,1-.362-.8.994.994,0,0,1,.347-.763,1.429,1.429,0,0,1,.994-.315q.187,0,.376.012t.306.026l.219.029.108.015a.84.84,0,0,0-.915-.857,1.588,1.588,0,0,0-1,.3l-.257-.42a1.752,1.752,0,0,1,.574-.289,2.176,2.176,0,0,1,.632-.1,1.374,1.374,0,0,1,1.259.56,2.9,2.9,0,0,1,.28,1.493Zm-.53-.175s-.132-.016-.4-.035-.5-.035-.729-.035a.957.957,0,0,0-.525.134.443.443,0,0,0-.216.385.576.576,0,0,0,.2.446.8.8,0,0,0,.536.166,1.136,1.136,0,0,0,.822-.3,1.013,1.013,0,0,0,.309-.764Zm2.011.023v-1.743h.525v1.772q0,1,.875,1a1.032,1.032,0,0,0,.685-.242.811.811,0,0,0,.289-.656v-1.877h.525v3.148h-.525v-.257a1.035,1.035,0,0,1-.4.274,1.365,1.365,0,0,1-.56.134,1.4,1.4,0,0,1-1.058-.37,1.678,1.678,0,0,1-.353-1.186Zm4.99,1.149v1.621h-.524v-4.512h.525v.286a.92.92,0,0,1,.4-.3,1.425,1.425,0,0,1,.635-.14,1.448,1.448,0,0,1,1.134.5,1.75,1.75,0,0,1,.464,1.245,1.758,1.758,0,0,1-.44,1.23,1.5,1.5,0,0,1-1.163.484,1.6,1.6,0,0,1-.609-.134.982.982,0,0,1-.423-.275Zm2.11-1.323a1.263,1.263,0,0,0-.289-.828.906.906,0,0,0-.772-.373,1.039,1.039,0,0,0-.74.286,1.206,1.206,0,0,0-.309.915,1.271,1.271,0,0,0,.289.9.988.988,0,0,0,.761.312.939.939,0,0,0,.775-.359,1.32,1.32,0,0,0,.286-.849Zm4.751.326v1.253h-.525v-.42a1.208,1.208,0,0,1-.446.391,1.35,1.35,0,0,1-.685.187,1.35,1.35,0,0,1-.9-.306.994.994,0,0,1-.362-.8.994.994,0,0,1,.347-.763,1.429,1.429,0,0,1,.994-.315q.187,0,.376.012t.306.026l.219.029.108.015a.84.84,0,0,0-.915-.857,1.588,1.588,0,0,0-1,.3l-.257-.42a1.752,1.752,0,0,1,.574-.289,2.176,2.176,0,0,1,.632-.1,1.374,1.374,0,0,1,1.259.56,2.891,2.891,0,0,1,.281,1.493Zm-.53-.175s-.132-.016-.4-.035-.5-.035-.729-.035a.957.957,0,0,0-.525.134.443.443,0,0,0-.216.385.576.576,0,0,0,.2.446.8.8,0,0,0,.536.166,1.136,1.136,0,0,0,.822-.3,1.013,1.013,0,0,0,.309-.764Zm4.553-1.463v-1.306h.525v4.2H29.69v-.292a.938.938,0,0,1-.411.318,1.5,1.5,0,0,1-.627.131,1.448,1.448,0,0,1-1.134-.5,1.75,1.75,0,0,1-.464-1.245,1.758,1.758,0,0,1,.44-1.23,1.5,1.5,0,0,1,1.163-.484,1.6,1.6,0,0,1,.609.134.982.982,0,0,1,.423.275ZM27.579-14.6a1.263,1.263,0,0,0,.289.828.906.906,0,0,0,.772.373,1.039,1.039,0,0,0,.74-.286,1.206,1.206,0,0,0,.309-.915,1.271,1.271,0,0,0-.289-.9.988.988,0,0,0-.761-.312.939.939,0,0,0-.775.359A1.32,1.32,0,0,0,27.579-14.6Zm4.739-2.1h-.525v-.525h.525Zm0,3.673h-.525v-3.148h.525Z" transform="translate(7.643 20.448)" fill="#fff"/>
      </g>
    </g>
  </g>
</svg>
