<svg xmlns="http://www.w3.org/2000/svg" width="56.732" height="62.925" viewBox="0 0 56.732 62.925">
  <path id="ic_assignment_24px" d="M52.54,7.192H39.6a9.252,9.252,0,0,0-17.463,0H9.192A6.211,6.211,0,0,0,3,13.385V56.732a6.211,6.211,0,0,0,6.192,6.192H52.54a6.211,6.211,0,0,0,6.192-6.192V13.385A6.211,6.211,0,0,0,52.54,7.192Zm-21.674,0a3.1,3.1,0,1,1-3.1,3.1A3.105,3.105,0,0,1,30.866,7.192ZM37.059,50.54H15.385V44.347H37.059Zm9.289-12.385H15.385V31.962H46.347Zm0-12.385H15.385V19.577H46.347Z" transform="translate(-2.5 -0.5)" fill="#ffa300" stroke="#ffa300" stroke-width="1"/>
</svg>
