<svg xmlns="http://www.w3.org/2000/svg" width="45.341" height="64.59" viewBox="0 0 45.341 64.59">
  <path id="ic_person_pin_circle_24px" d="M27.17,2A22.2,22.2,0,0,0,5,24.17C5,40.8,27.17,65.344,27.17,65.344S49.341,40.8,49.341,24.17A22.2,22.2,0,0,0,27.17,2Zm0,6.334a6.334,6.334,0,1,1-6.334,6.334A6.353,6.353,0,0,1,27.17,8.334Zm0,31.672A15.148,15.148,0,0,1,14.5,33.2c.063-4.181,8.456-6.493,12.669-6.493S39.776,29.016,39.839,33.2A15.148,15.148,0,0,1,27.17,40.006Z" transform="translate(-4.5 -1.5)" fill="#ffa300" stroke="#ffa300" stroke-width="1"/>
</svg>
