<svg xmlns="http://www.w3.org/2000/svg" xmlns:xlink="http://www.w3.org/1999/xlink" width="46" height="46" viewBox="0 0 46 46">
  <defs>
    <radialGradient id="radial-gradient" cx="0.207" cy="1.202" r="1.514" gradientTransform="matrix(0.644, -0.765, 0.506, 0.425, -0.534, 0.849)" gradientUnits="objectBoundingBox">
      <stop offset="0.073" stop-color="#eacc7b"/>
      <stop offset="0.184" stop-color="#ecaa59"/>
      <stop offset="0.307" stop-color="#ef802e"/>
      <stop offset="0.358" stop-color="#ef6d3a"/>
      <stop offset="0.46" stop-color="#f04b50"/>
      <stop offset="0.516" stop-color="#f03e58"/>
      <stop offset="0.689" stop-color="#db359e"/>
      <stop offset="0.724" stop-color="#ce37a4"/>
      <stop offset="0.789" stop-color="#ac3cb4"/>
      <stop offset="0.877" stop-color="#7544cf"/>
      <stop offset="0.98" stop-color="#2b4ff2"/>
    </radialGradient>
  </defs>
  <g id="icons8-instagram" transform="translate(-9 -11)">
    <path id="Path_95" data-name="Path 95" d="M45,57H19A10.029,10.029,0,0,1,9,47V21A10.029,10.029,0,0,1,19,11H45A10.029,10.029,0,0,1,55,21V47A10.029,10.029,0,0,1,45,57Z" fill="url(#radial-gradient)"/>
    <path id="Path_96" data-name="Path 96" d="M32,20c4.6,0,5.1,0,6.9.1a11.1,11.1,0,0,1,3.2.6A5.748,5.748,0,0,1,45.4,24a11.1,11.1,0,0,1,.6,3.2V34c0,4.6,0,5.1-.1,6.9a11.1,11.1,0,0,1-.6,3.2A5.748,5.748,0,0,1,42,47.4a11.1,11.1,0,0,1-3.2.6H32c-4.6,0-5.1,0-6.9-.1a11.1,11.1,0,0,1-3.2-.6A5.748,5.748,0,0,1,18.6,44a11.1,11.1,0,0,1-.6-3.2V34c0-4.6,0-5.1.1-6.9a11.1,11.1,0,0,1,.6-3.2A5.748,5.748,0,0,1,22,20.6a11.1,11.1,0,0,1,3.2-.6H32m0-3c-4.6,0-5.2,0-7,.1a13.483,13.483,0,0,0-4.1.8,7.208,7.208,0,0,0-3,2,11.224,11.224,0,0,0-2,3,13.483,13.483,0,0,0-.8,4.1c-.1,1.8-.1,2.4-.1,7s0,5.2.1,7a13.483,13.483,0,0,0,.8,4.1,7.208,7.208,0,0,0,2,3,9.847,9.847,0,0,0,3,2,13.483,13.483,0,0,0,4.1.8c1.8.1,2.4.1,7,.1s5.2,0,7-.1a13.483,13.483,0,0,0,4.1-.8,7.208,7.208,0,0,0,3-2,9.847,9.847,0,0,0,2-3,13.483,13.483,0,0,0,.8-4.1c.1-1.8.1-2.4.1-7s0-5.2-.1-7a13.483,13.483,0,0,0-.8-4.1,7.208,7.208,0,0,0-2-3,11.224,11.224,0,0,0-3-2,13.483,13.483,0,0,0-4.1-.8c-1.8-.1-2.4-.1-7-.1Z" fill="#fff"/>
    <path id="Path_97" data-name="Path 97" d="M32,25a9,9,0,1,0,9,9A8.963,8.963,0,0,0,32,25Zm0,15a6,6,0,1,1,6-6A6.018,6.018,0,0,1,32,40Z" fill="#fff"/>
    <circle id="Ellipse_2" data-name="Ellipse 2" cx="2" cy="2" r="2" transform="translate(39 23)" fill="#fff"/>
  </g>
</svg>
