<svg xmlns="http://www.w3.org/2000/svg" width="64.002" height="63.998" viewBox="0 0 64.002 63.998">
  <path id="Path_1114" data-name="Path 1114" d="M-17427.459-2313.518a31.911,31.911,0,0,1-10.168-6.857,31.857,31.857,0,0,1-6.855-10.171A31.775,31.775,0,0,1-17447-2343a31.781,31.781,0,0,1,2.518-12.457,31.9,31.9,0,0,1,6.855-10.171,31.907,31.907,0,0,1,10.168-6.857A31.818,31.818,0,0,1-17415-2375a31.8,31.8,0,0,1,12.457,2.513,31.8,31.8,0,0,1,10.172,6.857,31.907,31.907,0,0,1,6.861,10.171A31.812,31.812,0,0,1-17383-2343a31.806,31.806,0,0,1-2.514,12.453,31.858,31.858,0,0,1-6.861,10.171,31.8,31.8,0,0,1-10.172,6.857A31.808,31.808,0,0,1-17415-2311,31.823,31.823,0,0,1-17427.459-2313.518ZM-17441-2343a26.028,26.028,0,0,0,26,26,26.028,26.028,0,0,0,26-26,26.025,26.025,0,0,0-26-26A26.025,26.025,0,0,0-17441-2343Zm14.922,11.078v-4.615l13.613-13.613,4.615,4.615-13.613,13.613Zm14.932-19.546,2.25-2.251a1.222,1.222,0,0,1,1.734,0l2.881,2.881a1.22,1.22,0,0,1,0,1.734l-2.25,2.25Z" transform="translate(17447 2374.999)" fill="#ffa300"/>
</svg>
