<svg xmlns="http://www.w3.org/2000/svg" width="113" height="24" viewBox="0 0 113 24">
  <g id="right" transform="translate(-1284 -823)">
    <rect id="Rectangle_1514" data-name="Rectangle 1514" width="113" height="24" transform="translate(1284 823)" fill="#f22" opacity="0"/>
    <path id="Right-2" data-name="Right" d="M15.429,9.92C17.672,6.5,16.216,2.655,12.04.972A6.619,6.619,0,0,0,9.454.444a8.933,8.933,0,0,0-3.854.6c-7.446,2.6-7.473,12.334-.043,15.412,4.289,1.777,12.566.131,21.226-4.217C43.016,4.081,60.572,3.448,66.67,10.8c2.033,2.45.414,5.555-2.9,5.555-1.558,0-2.832-.533-2.832-1.184s.8-1.184,1.775-1.184,1.775-.533,1.775-1.184c0-1.932-4.747-1.345-5.525.684a4.06,4.06,0,0,0,1.2,3.785c1.5,1.5,2.63,1.665,5.191.753,2.66-.947,3.283-2.06,3.274-5.15-.006-2.093-2.959-4.734-2.959-4.734s6.85,2.779,11.206,4.818C90.452,19.306,100,18.788,100,11.7c0-3.6-2.148-5.234-4.765-3.617-1.333.824-1.334,1.3,0,2.9,1.174,1.416,1.243,2.263.263,3.243-2.422,2.422-9.812,1.061-20.185-3.718-19.488-8.978-27.063-9-47.732-.174-13.8,5.9-21.13,6.483-24.113,1.931C1.221,8.842,2.073,5.065,5.5,3.229,8.453,1.649,13.6,2.787,13.6,5.018c0,1.019-.837,1.424-2.2,1.066-2.7-.705-4.338,2.763-2.406,5.091C11,13.6,13.314,13.149,15.429,9.92Z" transform="translate(1289 826.584)" fill="#cca884"/>
  </g>
</svg>
